%TF.GenerationSoftware,KiCad,Pcbnew,(6.0.5)*%
%TF.CreationDate,2022-06-07T17:53:48-07:00*%
%TF.ProjectId,sdvx-pcb,73647678-2d70-4636-922e-6b696361645f,rev?*%
%TF.SameCoordinates,Original*%
%TF.FileFunction,Legend,Top*%
%TF.FilePolarity,Positive*%
%FSLAX46Y46*%
G04 Gerber Fmt 4.6, Leading zero omitted, Abs format (unit mm)*
G04 Created by KiCad (PCBNEW (6.0.5)) date 2022-06-07 17:53:48*
%MOMM*%
%LPD*%
G01*
G04 APERTURE LIST*
%ADD10C,0.150000*%
%ADD11C,0.300000*%
%ADD12C,0.120000*%
G04 APERTURE END LIST*
D10*
X185975892Y-116574107D02*
X186190178Y-116645535D01*
X186261607Y-116716964D01*
X186333035Y-116859821D01*
X186333035Y-117074107D01*
X186261607Y-117216964D01*
X186190178Y-117288392D01*
X186047321Y-117359821D01*
X185475892Y-117359821D01*
X185475892Y-115859821D01*
X185975892Y-115859821D01*
X186118750Y-115931250D01*
X186190178Y-116002678D01*
X186261607Y-116145535D01*
X186261607Y-116288392D01*
X186190178Y-116431250D01*
X186118750Y-116502678D01*
X185975892Y-116574107D01*
X185475892Y-116574107D01*
X186761607Y-115859821D02*
X187618750Y-115859821D01*
X187190178Y-117359821D02*
X187190178Y-115859821D01*
X188118750Y-116788392D02*
X189261607Y-116788392D01*
X189975892Y-117359821D02*
X189975892Y-115859821D01*
X190333035Y-115859821D01*
X190547321Y-115931250D01*
X190690178Y-116074107D01*
X190761607Y-116216964D01*
X190833035Y-116502678D01*
X190833035Y-116716964D01*
X190761607Y-117002678D01*
X190690178Y-117145535D01*
X190547321Y-117288392D01*
X190333035Y-117359821D01*
X189975892Y-117359821D01*
X161333928Y-161817857D02*
X160833928Y-161817857D01*
X160833928Y-162603571D02*
X160833928Y-161103571D01*
X161548214Y-161103571D01*
X161976785Y-161103571D02*
X162976785Y-162603571D01*
X162976785Y-161103571D02*
X161976785Y-162603571D01*
X163548214Y-162032142D02*
X164691071Y-162032142D01*
X166262500Y-162603571D02*
X165762500Y-161889285D01*
X165405357Y-162603571D02*
X165405357Y-161103571D01*
X165976785Y-161103571D01*
X166119642Y-161175000D01*
X166191071Y-161246428D01*
X166262500Y-161389285D01*
X166262500Y-161603571D01*
X166191071Y-161746428D01*
X166119642Y-161817857D01*
X165976785Y-161889285D01*
X165405357Y-161889285D01*
X151050892Y-116574107D02*
X151265178Y-116645535D01*
X151336607Y-116716964D01*
X151408035Y-116859821D01*
X151408035Y-117074107D01*
X151336607Y-117216964D01*
X151265178Y-117288392D01*
X151122321Y-117359821D01*
X150550892Y-117359821D01*
X150550892Y-115859821D01*
X151050892Y-115859821D01*
X151193750Y-115931250D01*
X151265178Y-116002678D01*
X151336607Y-116145535D01*
X151336607Y-116288392D01*
X151265178Y-116431250D01*
X151193750Y-116502678D01*
X151050892Y-116574107D01*
X150550892Y-116574107D01*
X151836607Y-115859821D02*
X152693750Y-115859821D01*
X152265178Y-117359821D02*
X152265178Y-115859821D01*
X153193750Y-116788392D02*
X154336607Y-116788392D01*
X155908035Y-117216964D02*
X155836607Y-117288392D01*
X155622321Y-117359821D01*
X155479464Y-117359821D01*
X155265178Y-117288392D01*
X155122321Y-117145535D01*
X155050892Y-117002678D01*
X154979464Y-116716964D01*
X154979464Y-116502678D01*
X155050892Y-116216964D01*
X155122321Y-116074107D01*
X155265178Y-115931250D01*
X155479464Y-115859821D01*
X155622321Y-115859821D01*
X155836607Y-115931250D01*
X155908035Y-116002678D01*
X116125892Y-116574107D02*
X116340178Y-116645535D01*
X116411607Y-116716964D01*
X116483035Y-116859821D01*
X116483035Y-117074107D01*
X116411607Y-117216964D01*
X116340178Y-117288392D01*
X116197321Y-117359821D01*
X115625892Y-117359821D01*
X115625892Y-115859821D01*
X116125892Y-115859821D01*
X116268750Y-115931250D01*
X116340178Y-116002678D01*
X116411607Y-116145535D01*
X116411607Y-116288392D01*
X116340178Y-116431250D01*
X116268750Y-116502678D01*
X116125892Y-116574107D01*
X115625892Y-116574107D01*
X116911607Y-115859821D02*
X117768750Y-115859821D01*
X117340178Y-117359821D02*
X117340178Y-115859821D01*
X118268750Y-116788392D02*
X119411607Y-116788392D01*
X120625892Y-116574107D02*
X120840178Y-116645535D01*
X120911607Y-116716964D01*
X120983035Y-116859821D01*
X120983035Y-117074107D01*
X120911607Y-117216964D01*
X120840178Y-117288392D01*
X120697321Y-117359821D01*
X120125892Y-117359821D01*
X120125892Y-115859821D01*
X120625892Y-115859821D01*
X120768750Y-115931250D01*
X120840178Y-116002678D01*
X120911607Y-116145535D01*
X120911607Y-116288392D01*
X120840178Y-116431250D01*
X120768750Y-116502678D01*
X120625892Y-116574107D01*
X120125892Y-116574107D01*
X191294642Y-40139880D02*
X191294642Y-39139880D01*
X191675595Y-39139880D01*
X191770833Y-39187500D01*
X191818452Y-39235119D01*
X191866071Y-39330357D01*
X191866071Y-39473214D01*
X191818452Y-39568452D01*
X191770833Y-39616071D01*
X191675595Y-39663690D01*
X191294642Y-39663690D01*
X192294642Y-40139880D02*
X192294642Y-39473214D01*
X192294642Y-39663690D02*
X192342261Y-39568452D01*
X192389880Y-39520833D01*
X192485119Y-39473214D01*
X192580357Y-39473214D01*
X193294642Y-40092261D02*
X193199404Y-40139880D01*
X193008928Y-40139880D01*
X192913690Y-40092261D01*
X192866071Y-39997023D01*
X192866071Y-39616071D01*
X192913690Y-39520833D01*
X193008928Y-39473214D01*
X193199404Y-39473214D01*
X193294642Y-39520833D01*
X193342261Y-39616071D01*
X193342261Y-39711309D01*
X192866071Y-39806547D01*
X193723214Y-40092261D02*
X193818452Y-40139880D01*
X194008928Y-40139880D01*
X194104166Y-40092261D01*
X194151785Y-39997023D01*
X194151785Y-39949404D01*
X194104166Y-39854166D01*
X194008928Y-39806547D01*
X193866071Y-39806547D01*
X193770833Y-39758928D01*
X193723214Y-39663690D01*
X193723214Y-39616071D01*
X193770833Y-39520833D01*
X193866071Y-39473214D01*
X194008928Y-39473214D01*
X194104166Y-39520833D01*
X194532738Y-40092261D02*
X194627976Y-40139880D01*
X194818452Y-40139880D01*
X194913690Y-40092261D01*
X194961309Y-39997023D01*
X194961309Y-39949404D01*
X194913690Y-39854166D01*
X194818452Y-39806547D01*
X194675595Y-39806547D01*
X194580357Y-39758928D01*
X194532738Y-39663690D01*
X194532738Y-39616071D01*
X194580357Y-39520833D01*
X194675595Y-39473214D01*
X194818452Y-39473214D01*
X194913690Y-39520833D01*
X196008928Y-39473214D02*
X196389880Y-39473214D01*
X196151785Y-39139880D02*
X196151785Y-39997023D01*
X196199404Y-40092261D01*
X196294642Y-40139880D01*
X196389880Y-40139880D01*
X196866071Y-40139880D02*
X196770833Y-40092261D01*
X196723214Y-40044642D01*
X196675595Y-39949404D01*
X196675595Y-39663690D01*
X196723214Y-39568452D01*
X196770833Y-39520833D01*
X196866071Y-39473214D01*
X197008928Y-39473214D01*
X197104166Y-39520833D01*
X197151785Y-39568452D01*
X197199404Y-39663690D01*
X197199404Y-39949404D01*
X197151785Y-40044642D01*
X197104166Y-40092261D01*
X197008928Y-40139880D01*
X196866071Y-40139880D01*
X198389880Y-40139880D02*
X198389880Y-39473214D01*
X198389880Y-39663690D02*
X198437500Y-39568452D01*
X198485119Y-39520833D01*
X198580357Y-39473214D01*
X198675595Y-39473214D01*
X199389880Y-40092261D02*
X199294642Y-40139880D01*
X199104166Y-40139880D01*
X199008928Y-40092261D01*
X198961309Y-39997023D01*
X198961309Y-39616071D01*
X199008928Y-39520833D01*
X199104166Y-39473214D01*
X199294642Y-39473214D01*
X199389880Y-39520833D01*
X199437500Y-39616071D01*
X199437500Y-39711309D01*
X198961309Y-39806547D01*
X199818452Y-40092261D02*
X199913690Y-40139880D01*
X200104166Y-40139880D01*
X200199404Y-40092261D01*
X200247023Y-39997023D01*
X200247023Y-39949404D01*
X200199404Y-39854166D01*
X200104166Y-39806547D01*
X199961309Y-39806547D01*
X199866071Y-39758928D01*
X199818452Y-39663690D01*
X199818452Y-39616071D01*
X199866071Y-39520833D01*
X199961309Y-39473214D01*
X200104166Y-39473214D01*
X200199404Y-39520833D01*
X201056547Y-40092261D02*
X200961309Y-40139880D01*
X200770833Y-40139880D01*
X200675595Y-40092261D01*
X200627976Y-39997023D01*
X200627976Y-39616071D01*
X200675595Y-39520833D01*
X200770833Y-39473214D01*
X200961309Y-39473214D01*
X201056547Y-39520833D01*
X201104166Y-39616071D01*
X201104166Y-39711309D01*
X200627976Y-39806547D01*
X201389880Y-39473214D02*
X201770833Y-39473214D01*
X201532738Y-39139880D02*
X201532738Y-39997023D01*
X201580357Y-40092261D01*
X201675595Y-40139880D01*
X201770833Y-40139880D01*
X202866071Y-40139880D02*
X202866071Y-39139880D01*
X203199404Y-39854166D01*
X203532738Y-39139880D01*
X203532738Y-40139880D01*
X204580357Y-40044642D02*
X204532738Y-40092261D01*
X204389880Y-40139880D01*
X204294642Y-40139880D01*
X204151785Y-40092261D01*
X204056547Y-39997023D01*
X204008928Y-39901785D01*
X203961309Y-39711309D01*
X203961309Y-39568452D01*
X204008928Y-39377976D01*
X204056547Y-39282738D01*
X204151785Y-39187500D01*
X204294642Y-39139880D01*
X204389880Y-39139880D01*
X204532738Y-39187500D01*
X204580357Y-39235119D01*
X205008928Y-39139880D02*
X205008928Y-39949404D01*
X205056547Y-40044642D01*
X205104166Y-40092261D01*
X205199404Y-40139880D01*
X205389880Y-40139880D01*
X205485119Y-40092261D01*
X205532738Y-40044642D01*
X205580357Y-39949404D01*
X205580357Y-39139880D01*
X91626785Y-161817857D02*
X91126785Y-161817857D01*
X91126785Y-162603571D02*
X91126785Y-161103571D01*
X91841071Y-161103571D01*
X92269642Y-161103571D02*
X93269642Y-162603571D01*
X93269642Y-161103571D02*
X92269642Y-162603571D01*
X93841071Y-162032142D02*
X94983928Y-162032142D01*
X96412500Y-162603571D02*
X95698214Y-162603571D01*
X95698214Y-161103571D01*
X81308035Y-116574107D02*
X81522321Y-116645535D01*
X81593750Y-116716964D01*
X81665178Y-116859821D01*
X81665178Y-117074107D01*
X81593750Y-117216964D01*
X81522321Y-117288392D01*
X81379464Y-117359821D01*
X80808035Y-117359821D01*
X80808035Y-115859821D01*
X81308035Y-115859821D01*
X81450892Y-115931250D01*
X81522321Y-116002678D01*
X81593750Y-116145535D01*
X81593750Y-116288392D01*
X81522321Y-116431250D01*
X81450892Y-116502678D01*
X81308035Y-116574107D01*
X80808035Y-116574107D01*
X82093750Y-115859821D02*
X82950892Y-115859821D01*
X82522321Y-117359821D02*
X82522321Y-115859821D01*
X83450892Y-116788392D02*
X84593750Y-116788392D01*
X85236607Y-116931250D02*
X85950892Y-116931250D01*
X85093750Y-117359821D02*
X85593750Y-115859821D01*
X86093750Y-117359821D01*
D11*
X144673214Y-51407142D02*
X144887500Y-51478571D01*
X145244642Y-51478571D01*
X145387500Y-51407142D01*
X145458928Y-51335714D01*
X145530357Y-51192857D01*
X145530357Y-51050000D01*
X145458928Y-50907142D01*
X145387500Y-50835714D01*
X145244642Y-50764285D01*
X144958928Y-50692857D01*
X144816071Y-50621428D01*
X144744642Y-50550000D01*
X144673214Y-50407142D01*
X144673214Y-50264285D01*
X144744642Y-50121428D01*
X144816071Y-50050000D01*
X144958928Y-49978571D01*
X145316071Y-49978571D01*
X145530357Y-50050000D01*
X145958928Y-49978571D02*
X146816071Y-49978571D01*
X146387500Y-51478571D02*
X146387500Y-49978571D01*
X147244642Y-51050000D02*
X147958928Y-51050000D01*
X147101785Y-51478571D02*
X147601785Y-49978571D01*
X148101785Y-51478571D01*
X149458928Y-51478571D02*
X148958928Y-50764285D01*
X148601785Y-51478571D02*
X148601785Y-49978571D01*
X149173214Y-49978571D01*
X149316071Y-50050000D01*
X149387500Y-50121428D01*
X149458928Y-50264285D01*
X149458928Y-50478571D01*
X149387500Y-50621428D01*
X149316071Y-50692857D01*
X149173214Y-50764285D01*
X148601785Y-50764285D01*
X149887500Y-49978571D02*
X150744642Y-49978571D01*
X150316071Y-51478571D02*
X150316071Y-49978571D01*
D10*
%TO.C,VOL-R1*%
X225458630Y-80582142D02*
X226458630Y-80248809D01*
X225458630Y-79915476D01*
X225458630Y-79391666D02*
X225458630Y-79201190D01*
X225506250Y-79105952D01*
X225601488Y-79010714D01*
X225791964Y-78963095D01*
X226125297Y-78963095D01*
X226315773Y-79010714D01*
X226411011Y-79105952D01*
X226458630Y-79201190D01*
X226458630Y-79391666D01*
X226411011Y-79486904D01*
X226315773Y-79582142D01*
X226125297Y-79629761D01*
X225791964Y-79629761D01*
X225601488Y-79582142D01*
X225506250Y-79486904D01*
X225458630Y-79391666D01*
X226458630Y-78058333D02*
X226458630Y-78534523D01*
X225458630Y-78534523D01*
X226077678Y-77725000D02*
X226077678Y-76963095D01*
X226458630Y-75915476D02*
X225982440Y-76248809D01*
X226458630Y-76486904D02*
X225458630Y-76486904D01*
X225458630Y-76105952D01*
X225506250Y-76010714D01*
X225553869Y-75963095D01*
X225649107Y-75915476D01*
X225791964Y-75915476D01*
X225887202Y-75963095D01*
X225934821Y-76010714D01*
X225982440Y-76105952D01*
X225982440Y-76486904D01*
X226458630Y-74963095D02*
X226458630Y-75534523D01*
X226458630Y-75248809D02*
X225458630Y-75248809D01*
X225601488Y-75344047D01*
X225696726Y-75439285D01*
X225744345Y-75534523D01*
%TO.C,VOL-L1*%
X56146130Y-80486904D02*
X57146130Y-80153571D01*
X56146130Y-79820238D01*
X56146130Y-79296428D02*
X56146130Y-79105952D01*
X56193750Y-79010714D01*
X56288988Y-78915476D01*
X56479464Y-78867857D01*
X56812797Y-78867857D01*
X57003273Y-78915476D01*
X57098511Y-79010714D01*
X57146130Y-79105952D01*
X57146130Y-79296428D01*
X57098511Y-79391666D01*
X57003273Y-79486904D01*
X56812797Y-79534523D01*
X56479464Y-79534523D01*
X56288988Y-79486904D01*
X56193750Y-79391666D01*
X56146130Y-79296428D01*
X57146130Y-77963095D02*
X57146130Y-78439285D01*
X56146130Y-78439285D01*
X56765178Y-77629761D02*
X56765178Y-76867857D01*
X57146130Y-75915476D02*
X57146130Y-76391666D01*
X56146130Y-76391666D01*
X57146130Y-75058333D02*
X57146130Y-75629761D01*
X57146130Y-75344047D02*
X56146130Y-75344047D01*
X56288988Y-75439285D01*
X56384226Y-75534523D01*
X56431845Y-75629761D01*
%TO.C,SW1*%
X197104166Y-49248511D02*
X197247023Y-49296130D01*
X197485119Y-49296130D01*
X197580357Y-49248511D01*
X197627976Y-49200892D01*
X197675595Y-49105654D01*
X197675595Y-49010416D01*
X197627976Y-48915178D01*
X197580357Y-48867559D01*
X197485119Y-48819940D01*
X197294642Y-48772321D01*
X197199404Y-48724702D01*
X197151785Y-48677083D01*
X197104166Y-48581845D01*
X197104166Y-48486607D01*
X197151785Y-48391369D01*
X197199404Y-48343750D01*
X197294642Y-48296130D01*
X197532738Y-48296130D01*
X197675595Y-48343750D01*
X198008928Y-48296130D02*
X198247023Y-49296130D01*
X198437500Y-48581845D01*
X198627976Y-49296130D01*
X198866071Y-48296130D01*
X199770833Y-49296130D02*
X199199404Y-49296130D01*
X199485119Y-49296130D02*
X199485119Y-48296130D01*
X199389880Y-48438988D01*
X199294642Y-48534226D01*
X199199404Y-48581845D01*
D12*
%TO.C,VOL-R1*%
X231906250Y-66925000D02*
X234506250Y-66925000D01*
X236506250Y-66925000D02*
X239106250Y-66925000D01*
X229406250Y-80525000D02*
X229106250Y-80825000D01*
X229106250Y-80825000D02*
X229106250Y-80225000D01*
X227306250Y-66925000D02*
X229906250Y-66925000D01*
X229106250Y-80225000D02*
X229406250Y-80525000D01*
X227406250Y-75025000D02*
X227406250Y-79125000D01*
X239106250Y-75025000D02*
X239106250Y-79125000D01*
X227406250Y-79125000D02*
X239106250Y-79125000D01*
X232706250Y-73025000D02*
X233706250Y-73025000D01*
X233206250Y-73525000D02*
X233206250Y-72525000D01*
X227306250Y-71025000D02*
X227306250Y-66925000D01*
X239106250Y-66925000D02*
X239106250Y-71025000D01*
X236206250Y-73025000D02*
G75*
G03*
X236206250Y-73025000I-3000000J0D01*
G01*
%TO.C,VOL-L1*%
X62593750Y-66925000D02*
X65193750Y-66925000D01*
X67193750Y-66925000D02*
X69793750Y-66925000D01*
X60093750Y-80525000D02*
X59793750Y-80825000D01*
X59793750Y-80825000D02*
X59793750Y-80225000D01*
X57993750Y-66925000D02*
X60593750Y-66925000D01*
X59793750Y-80225000D02*
X60093750Y-80525000D01*
X58093750Y-75025000D02*
X58093750Y-79125000D01*
X69793750Y-75025000D02*
X69793750Y-79125000D01*
X58093750Y-79125000D02*
X69793750Y-79125000D01*
X63393750Y-73025000D02*
X64393750Y-73025000D01*
X63893750Y-73525000D02*
X63893750Y-72525000D01*
X57993750Y-71025000D02*
X57993750Y-66925000D01*
X69793750Y-66925000D02*
X69793750Y-71025000D01*
X66893750Y-73025000D02*
G75*
G03*
X66893750Y-73025000I-3000000J0D01*
G01*
%TO.C,SW1*%
X196987500Y-47963750D02*
X196497500Y-47473750D01*
X195717500Y-44203750D02*
X195717500Y-46283750D01*
X199887500Y-42523750D02*
X196987500Y-42523750D01*
X201157500Y-44203750D02*
X201157500Y-46283750D01*
X199887500Y-47963750D02*
X196987500Y-47963750D01*
X199887500Y-47963750D02*
X200377500Y-47473750D01*
X196987500Y-42523750D02*
X196497500Y-43013750D01*
X199887500Y-42523750D02*
X200377500Y-43013750D01*
%TD*%
M02*
