%TF.GenerationSoftware,KiCad,Pcbnew,(6.0.5)*%
%TF.CreationDate,2022-06-07T02:55:43-07:00*%
%TF.ProjectId,sdvx-pcb,73647678-2d70-4636-922e-6b696361645f,rev?*%
%TF.SameCoordinates,Original*%
%TF.FileFunction,Legend,Top*%
%TF.FilePolarity,Positive*%
%FSLAX46Y46*%
G04 Gerber Fmt 4.6, Leading zero omitted, Abs format (unit mm)*
G04 Created by KiCad (PCBNEW (6.0.5)) date 2022-06-07 02:55:43*
%MOMM*%
%LPD*%
G01*
G04 APERTURE LIST*
%ADD10C,0.150000*%
%ADD11C,0.120000*%
G04 APERTURE END LIST*
D10*
%TO.C,SW1*%
X197104166Y-49248511D02*
X197247023Y-49296130D01*
X197485119Y-49296130D01*
X197580357Y-49248511D01*
X197627976Y-49200892D01*
X197675595Y-49105654D01*
X197675595Y-49010416D01*
X197627976Y-48915178D01*
X197580357Y-48867559D01*
X197485119Y-48819940D01*
X197294642Y-48772321D01*
X197199404Y-48724702D01*
X197151785Y-48677083D01*
X197104166Y-48581845D01*
X197104166Y-48486607D01*
X197151785Y-48391369D01*
X197199404Y-48343750D01*
X197294642Y-48296130D01*
X197532738Y-48296130D01*
X197675595Y-48343750D01*
X198008928Y-48296130D02*
X198247023Y-49296130D01*
X198437500Y-48581845D01*
X198627976Y-49296130D01*
X198866071Y-48296130D01*
X199770833Y-49296130D02*
X199199404Y-49296130D01*
X199485119Y-49296130D02*
X199485119Y-48296130D01*
X199389880Y-48438988D01*
X199294642Y-48534226D01*
X199199404Y-48581845D01*
%TO.C,VOL-R1*%
X225458630Y-80582142D02*
X226458630Y-80248809D01*
X225458630Y-79915476D01*
X225458630Y-79391666D02*
X225458630Y-79201190D01*
X225506250Y-79105952D01*
X225601488Y-79010714D01*
X225791964Y-78963095D01*
X226125297Y-78963095D01*
X226315773Y-79010714D01*
X226411011Y-79105952D01*
X226458630Y-79201190D01*
X226458630Y-79391666D01*
X226411011Y-79486904D01*
X226315773Y-79582142D01*
X226125297Y-79629761D01*
X225791964Y-79629761D01*
X225601488Y-79582142D01*
X225506250Y-79486904D01*
X225458630Y-79391666D01*
X226458630Y-78058333D02*
X226458630Y-78534523D01*
X225458630Y-78534523D01*
X226077678Y-77725000D02*
X226077678Y-76963095D01*
X226458630Y-75915476D02*
X225982440Y-76248809D01*
X226458630Y-76486904D02*
X225458630Y-76486904D01*
X225458630Y-76105952D01*
X225506250Y-76010714D01*
X225553869Y-75963095D01*
X225649107Y-75915476D01*
X225791964Y-75915476D01*
X225887202Y-75963095D01*
X225934821Y-76010714D01*
X225982440Y-76105952D01*
X225982440Y-76486904D01*
X226458630Y-74963095D02*
X226458630Y-75534523D01*
X226458630Y-75248809D02*
X225458630Y-75248809D01*
X225601488Y-75344047D01*
X225696726Y-75439285D01*
X225744345Y-75534523D01*
%TO.C,VOL-L1*%
X56146130Y-80486904D02*
X57146130Y-80153571D01*
X56146130Y-79820238D01*
X56146130Y-79296428D02*
X56146130Y-79105952D01*
X56193750Y-79010714D01*
X56288988Y-78915476D01*
X56479464Y-78867857D01*
X56812797Y-78867857D01*
X57003273Y-78915476D01*
X57098511Y-79010714D01*
X57146130Y-79105952D01*
X57146130Y-79296428D01*
X57098511Y-79391666D01*
X57003273Y-79486904D01*
X56812797Y-79534523D01*
X56479464Y-79534523D01*
X56288988Y-79486904D01*
X56193750Y-79391666D01*
X56146130Y-79296428D01*
X57146130Y-77963095D02*
X57146130Y-78439285D01*
X56146130Y-78439285D01*
X56765178Y-77629761D02*
X56765178Y-76867857D01*
X57146130Y-75915476D02*
X57146130Y-76391666D01*
X56146130Y-76391666D01*
X57146130Y-75058333D02*
X57146130Y-75629761D01*
X57146130Y-75344047D02*
X56146130Y-75344047D01*
X56288988Y-75439285D01*
X56384226Y-75534523D01*
X56431845Y-75629761D01*
D11*
%TO.C,SW1*%
X196987500Y-47963750D02*
X196497500Y-47473750D01*
X195717500Y-44203750D02*
X195717500Y-46283750D01*
X199887500Y-42523750D02*
X196987500Y-42523750D01*
X201157500Y-44203750D02*
X201157500Y-46283750D01*
X199887500Y-47963750D02*
X196987500Y-47963750D01*
X199887500Y-47963750D02*
X200377500Y-47473750D01*
X196987500Y-42523750D02*
X196497500Y-43013750D01*
X199887500Y-42523750D02*
X200377500Y-43013750D01*
%TO.C,VOL-R1*%
X239506250Y-74825000D02*
X239506250Y-79725000D01*
X226906250Y-79725000D02*
X229406250Y-79725000D01*
X226906250Y-74925000D02*
X226906250Y-79725000D01*
X239506250Y-79725000D02*
X236706250Y-79725000D01*
X229106250Y-80825000D02*
X229106250Y-80225000D01*
X239506250Y-66325000D02*
X239506250Y-71225000D01*
X226906250Y-71225000D02*
X226906250Y-66325000D01*
X229406250Y-80525000D02*
X229106250Y-80825000D01*
X232706250Y-73025000D02*
X233706250Y-73025000D01*
X226906250Y-66325000D02*
X239506250Y-66325000D01*
X233206250Y-73525000D02*
X233206250Y-72525000D01*
X229106250Y-80225000D02*
X229406250Y-80525000D01*
X236206250Y-73025000D02*
G75*
G03*
X236206250Y-73025000I-3000000J0D01*
G01*
%TO.C,VOL-L1*%
X57593750Y-79725000D02*
X60093750Y-79725000D01*
X59793750Y-80225000D02*
X60093750Y-80525000D01*
X59793750Y-80825000D02*
X59793750Y-80225000D01*
X57593750Y-74925000D02*
X57593750Y-79725000D01*
X70193750Y-79725000D02*
X67393750Y-79725000D01*
X57593750Y-71225000D02*
X57593750Y-66325000D01*
X57593750Y-66325000D02*
X70193750Y-66325000D01*
X70193750Y-74825000D02*
X70193750Y-79725000D01*
X70193750Y-66325000D02*
X70193750Y-71225000D01*
X63893750Y-73525000D02*
X63893750Y-72525000D01*
X63393750Y-73025000D02*
X64393750Y-73025000D01*
X60093750Y-80525000D02*
X59793750Y-80825000D01*
X66893750Y-73025000D02*
G75*
G03*
X66893750Y-73025000I-3000000J0D01*
G01*
%TD*%
M02*
