%TF.GenerationSoftware,KiCad,Pcbnew,(6.0.5)*%
%TF.CreationDate,2022-06-07T22:35:01-07:00*%
%TF.ProjectId,sdvx-pcb,73647678-2d70-4636-922e-6b696361645f,rev?*%
%TF.SameCoordinates,Original*%
%TF.FileFunction,Copper,L1,Top*%
%TF.FilePolarity,Positive*%
%FSLAX46Y46*%
G04 Gerber Fmt 4.6, Leading zero omitted, Abs format (unit mm)*
G04 Created by KiCad (PCBNEW (6.0.5)) date 2022-06-07 22:35:01*
%MOMM*%
%LPD*%
G01*
G04 APERTURE LIST*
%TA.AperFunction,SMDPad,CuDef*%
%ADD10R,1.800000X1.100000*%
%TD*%
%TA.AperFunction,ComponentPad*%
%ADD11C,3.200000*%
%TD*%
%TA.AperFunction,ComponentPad*%
%ADD12C,2.000000*%
%TD*%
%TA.AperFunction,ComponentPad*%
%ADD13R,2.000000X2.000000*%
%TD*%
%TA.AperFunction,ComponentPad*%
%ADD14C,1.500000*%
%TD*%
%TA.AperFunction,ComponentPad*%
%ADD15C,1.700000*%
%TD*%
%TA.AperFunction,ComponentPad*%
%ADD16R,1.700000X1.700000*%
%TD*%
%TA.AperFunction,ComponentPad*%
%ADD17O,1.000000X1.600000*%
%TD*%
%TA.AperFunction,ComponentPad*%
%ADD18O,1.000000X2.100000*%
%TD*%
%TA.AperFunction,ViaPad*%
%ADD19C,0.800000*%
%TD*%
%TA.AperFunction,Conductor*%
%ADD20C,0.254000*%
%TD*%
%TA.AperFunction,Conductor*%
%ADD21C,0.381000*%
%TD*%
G04 APERTURE END LIST*
D10*
%TO.P,SW1,1,1*%
%TO.N,GND*%
X201537500Y-47093750D03*
X195337500Y-47093750D03*
%TO.P,SW1,2,2*%
%TO.N,RESET*%
X201537500Y-43393750D03*
X195337500Y-43393750D03*
%TD*%
D11*
%TO.P,VOL-R1,MP*%
%TO.N,N/C*%
X238806250Y-73025000D03*
X227606250Y-73025000D03*
D12*
%TO.P,VOL-R1,C,C*%
%TO.N,GND*%
X233206250Y-80525000D03*
%TO.P,VOL-R1,B,B*%
%TO.N,VOLRB*%
X235706250Y-80525000D03*
D13*
%TO.P,VOL-R1,A,A*%
%TO.N,VOLRA*%
X230706250Y-80525000D03*
D14*
%TO.P,VOL-R1,*%
%TO.N,*%
X235706250Y-66025000D03*
X230706250Y-66025000D03*
%TD*%
D11*
%TO.P,VOL-L1,MP*%
%TO.N,N/C*%
X58293750Y-73025000D03*
X69493750Y-73025000D03*
D12*
%TO.P,VOL-L1,C,C*%
%TO.N,GND*%
X63893750Y-80525000D03*
%TO.P,VOL-L1,B,B*%
%TO.N,VOLLB*%
X66393750Y-80525000D03*
D13*
%TO.P,VOL-L1,A,A*%
%TO.N,VOLLA*%
X61393750Y-80525000D03*
D14*
%TO.P,VOL-L1,*%
%TO.N,*%
X66393750Y-66025000D03*
X61393750Y-66025000D03*
%TD*%
D15*
%TO.P,J1,1,MISO*%
%TO.N,MISO*%
X178276250Y-39528750D03*
%TO.P,J1,2,VCC*%
%TO.N,+5V*%
X175736250Y-39528750D03*
%TO.P,J1,3,SCK*%
%TO.N,SCK*%
X178276250Y-42068750D03*
%TO.P,J1,4,MOSI*%
%TO.N,MOSI*%
X175736250Y-42068750D03*
%TO.P,J1,5,~{RST}*%
%TO.N,RESET*%
X178276250Y-44608750D03*
D16*
%TO.P,J1,6,GND*%
%TO.N,GND*%
X175736250Y-44608750D03*
%TD*%
D17*
%TO.P,USB1,13,SHIELD*%
%TO.N,GND*%
X143317500Y-12122500D03*
X151957500Y-12122500D03*
D18*
X143317500Y-16302500D03*
X151957500Y-16302500D03*
%TD*%
D19*
%TO.N,KEYROW*%
X116681250Y-84137500D03*
X220662500Y-78581250D03*
X223043750Y-79798500D03*
X222250000Y-92868750D03*
X136525000Y-70643750D03*
X220662500Y-44450000D03*
X141287500Y-63500000D03*
X100806250Y-91281250D03*
%TO.N,COLA*%
X137318750Y-92075000D03*
X140493750Y-88900000D03*
%TO.N,COLB*%
X123031250Y-89693750D03*
X123031250Y-98425000D03*
%TO.N,COLC*%
X132556250Y-88900000D03*
X148431250Y-102393750D03*
%TO.N,COLD*%
X145256250Y-79375000D03*
X183356250Y-103187500D03*
%TO.N,GND*%
X145256250Y-13493750D03*
X136525000Y-21431250D03*
X148431250Y-60325000D03*
X147637500Y-12700000D03*
X150018750Y-13493750D03*
X185737500Y-47625000D03*
%TO.N,+5V*%
X161925000Y-85725000D03*
X137318750Y-77787500D03*
X133350000Y-64293750D03*
X149684673Y-62103031D03*
X153987500Y-51593750D03*
X172243750Y-85725000D03*
X166570661Y-84814411D03*
X158750000Y-60325000D03*
X117475000Y-56356250D03*
X150018750Y-82550000D03*
%TO.N,VCC*%
X144462500Y-19843750D03*
X150812500Y-19843750D03*
%TO.N,COLL*%
X111918750Y-114300000D03*
X116681250Y-88106250D03*
%TO.N,COLR*%
X146050000Y-146050000D03*
X123825000Y-79375000D03*
%TO.N,MISO*%
X157956250Y-59531250D03*
X178593750Y-34925000D03*
%TO.N,SCK*%
X177006250Y-50006250D03*
X180975000Y-42068750D03*
X156368750Y-57943750D03*
X155575000Y-59531250D03*
%TO.N,MOSI*%
X156942785Y-59517288D03*
X157162500Y-50006250D03*
%TO.N,RESET*%
X165100000Y-42068750D03*
X157162500Y-61912500D03*
X164306250Y-39687500D03*
%TO.N,COLSTART*%
X179387500Y-75406250D03*
X156368750Y-76993750D03*
%TO.N,VOLLB*%
X73818750Y-72231250D03*
X180975000Y-78581250D03*
X73818750Y-79375000D03*
X172243750Y-57150000D03*
X174625000Y-84137500D03*
X136525000Y-84137500D03*
X168275000Y-92075000D03*
X174625000Y-90487500D03*
%TO.N,VOLRA*%
X165100000Y-81756250D03*
X210343750Y-80962500D03*
%TO.N,VOLRB*%
X165100000Y-83343750D03*
X224631250Y-76993750D03*
%TO.N,VOLLA*%
X130968750Y-73818750D03*
X115887500Y-76200000D03*
%TD*%
D20*
%TO.N,KEYROW*%
X109537500Y-91281250D02*
X100806250Y-91281250D01*
X136525000Y-68262500D02*
X136525000Y-70643750D01*
X222250000Y-92868750D02*
X222250000Y-80592250D01*
X222250000Y-80592250D02*
X223043750Y-79798500D01*
X116681250Y-84137500D02*
X109537500Y-91281250D01*
X141287500Y-63500000D02*
X136525000Y-68262500D01*
X220662500Y-78581250D02*
X220662500Y-44450000D01*
%TO.N,COLA*%
X140493750Y-88900000D02*
X137318750Y-92075000D01*
%TO.N,COLB*%
X123031250Y-98425000D02*
X123031250Y-89693750D01*
%TO.N,COLC*%
X146050000Y-102393750D02*
X148431250Y-102393750D01*
X132556250Y-88900000D02*
X146050000Y-102393750D01*
%TO.N,COLD*%
X183356250Y-103187500D02*
X160337500Y-80168750D01*
X145256250Y-79375000D02*
X159543750Y-79375000D01*
X159543750Y-79375000D02*
X160337500Y-80168750D01*
D21*
%TO.N,GND*%
X122237500Y-60325000D02*
X120650000Y-58737500D01*
X201537500Y-47093750D02*
X195337500Y-47093750D01*
X195337500Y-47093750D02*
X186268750Y-47093750D01*
X148431250Y-60325000D02*
X122237500Y-60325000D01*
X120650000Y-58737500D02*
X120650000Y-37306250D01*
X186268750Y-47093750D02*
X185737500Y-47625000D01*
X120650000Y-37306250D02*
X136525000Y-21431250D01*
%TO.N,+5V*%
X135731250Y-79375000D02*
X134937500Y-79375000D01*
X117475000Y-59531250D02*
X117475000Y-56356250D01*
X122237500Y-64293750D02*
X117475000Y-59531250D01*
X161925000Y-85725000D02*
X151606250Y-85725000D01*
X151606250Y-85725000D02*
X148431250Y-82550000D01*
X137318750Y-77787500D02*
X135731250Y-79375000D01*
X172243750Y-85725000D02*
X167481250Y-85725000D01*
X132556250Y-64293750D02*
X131762500Y-64293750D01*
X131762500Y-64293750D02*
X133953230Y-62103020D01*
X133953230Y-62103020D02*
X150018750Y-62103020D01*
X154781250Y-60325000D02*
X153987500Y-61118750D01*
X153987500Y-51593750D02*
X153987500Y-61118750D01*
X153987500Y-61118750D02*
X153003230Y-62103020D01*
X138112500Y-82550000D02*
X148431250Y-82550000D01*
X148431250Y-82550000D02*
X150018750Y-82550000D01*
X133350000Y-64293750D02*
X132556250Y-64293750D01*
X158750000Y-60325000D02*
X154781250Y-60325000D01*
X153003230Y-62103020D02*
X150018750Y-62103020D01*
X131762500Y-64293750D02*
X122237500Y-64293750D01*
X167481250Y-85725000D02*
X166570661Y-84814411D01*
X134937500Y-79375000D02*
X138112500Y-82550000D01*
X132556250Y-64293750D02*
X132556250Y-76993750D01*
X132556250Y-76993750D02*
X134937500Y-79375000D01*
D20*
%TO.N,VCC*%
X150812500Y-19843750D02*
X144462500Y-19843750D01*
%TO.N,COLL*%
X111918750Y-114300000D02*
X111918750Y-92868750D01*
X111918750Y-92868750D02*
X116681250Y-88106250D01*
%TO.N,COLR*%
X122304739Y-122304739D02*
X122304739Y-80895261D01*
X122304739Y-80895261D02*
X123825000Y-79375000D01*
X146050000Y-146050000D02*
X122304739Y-122304739D01*
%TO.N,MISO*%
X170656250Y-34925000D02*
X169068750Y-36512500D01*
X169068750Y-36512500D02*
X157956250Y-47625000D01*
X157956250Y-47625000D02*
X157956250Y-59531250D01*
X178593750Y-34925000D02*
X170656250Y-34925000D01*
%TO.N,SCK*%
X156368750Y-58737500D02*
X155575000Y-59531250D01*
X156368750Y-57943750D02*
X156368750Y-58737500D01*
X180975000Y-46037500D02*
X177006250Y-50006250D01*
X180975000Y-42068750D02*
X180975000Y-46037500D01*
%TO.N,MOSI*%
X157095261Y-59364812D02*
X157095261Y-50073489D01*
X157095261Y-50073489D02*
X157162500Y-50006250D01*
X156942785Y-59517288D02*
X157095261Y-59364812D01*
%TO.N,RESET*%
X161131250Y-57943750D02*
X161131250Y-54768750D01*
X157162500Y-61912500D02*
X158189943Y-61912500D01*
X195337500Y-43393750D02*
X188381250Y-43393750D01*
X164306250Y-38100000D02*
X164306250Y-39687500D01*
X158189943Y-61912500D02*
X161131250Y-58971193D01*
X195337500Y-43393750D02*
X201537500Y-43393750D01*
X188381250Y-33600000D02*
X184943750Y-30162500D01*
X161131250Y-58971193D02*
X161131250Y-57943750D01*
X166687500Y-47625000D02*
X177006250Y-47625000D01*
X165100000Y-46037500D02*
X166687500Y-47625000D01*
X178276250Y-46355000D02*
X178276250Y-44608750D01*
X177006250Y-47625000D02*
X178276250Y-46355000D01*
X184943750Y-30162500D02*
X172243750Y-30162500D01*
X172243750Y-30162500D02*
X165893750Y-36512500D01*
X161131250Y-54768750D02*
X168275000Y-47625000D01*
X188381250Y-43393750D02*
X188381250Y-33600000D01*
X165100000Y-42068750D02*
X165100000Y-46037500D01*
X165893750Y-36512500D02*
X164306250Y-38100000D01*
%TO.N,COLSTART*%
X176212500Y-78581250D02*
X157162500Y-78581250D01*
X157162500Y-78581250D02*
X156368750Y-77787500D01*
X156368750Y-77787500D02*
X156368750Y-76993750D01*
X179387500Y-75406250D02*
X176212500Y-78581250D01*
%TO.N,VOLLB*%
X146843750Y-84137500D02*
X153987500Y-91281250D01*
X174625000Y-90487500D02*
X174625000Y-84137500D01*
X154781250Y-92075000D02*
X168275000Y-92075000D01*
X180975000Y-65881250D02*
X172243750Y-57150000D01*
X136525000Y-84137500D02*
X146843750Y-84137500D01*
X180975000Y-78581250D02*
X180975000Y-65881250D01*
X153987500Y-91281250D02*
X154781250Y-92075000D01*
X73818750Y-72231250D02*
X73818750Y-79375000D01*
%TO.N,VOLRA*%
X210343750Y-80962500D02*
X165893750Y-80962500D01*
X165893750Y-80962500D02*
X165100000Y-81756250D01*
%TO.N,VOLRB*%
X218281250Y-83343750D02*
X224631250Y-76993750D01*
X165100000Y-83343750D02*
X218281250Y-83343750D01*
%TO.N,VOLLA*%
X118268750Y-73818750D02*
X130968750Y-73818750D01*
X115887500Y-76200000D02*
X118268750Y-73818750D01*
%TD*%
%TA.AperFunction,NonConductor*%
G36*
X155139081Y-58757502D02*
G01*
X155185574Y-58811158D01*
X155195678Y-58881432D01*
X155166184Y-58946012D01*
X155153790Y-58958449D01*
X155044615Y-59053689D01*
X154946010Y-59193989D01*
X154883718Y-59353759D01*
X154861335Y-59523776D01*
X154871619Y-59616924D01*
X154879264Y-59686173D01*
X154866858Y-59756078D01*
X154818628Y-59808178D01*
X154754025Y-59826000D01*
X154745421Y-59826000D01*
X154740982Y-59826636D01*
X154740977Y-59826636D01*
X154735342Y-59827443D01*
X154725286Y-59828473D01*
X154711067Y-59829356D01*
X154687974Y-59830788D01*
X154687971Y-59830789D01*
X154679019Y-59831344D01*
X154670580Y-59834390D01*
X154666752Y-59835183D01*
X154652382Y-59838766D01*
X154648642Y-59839859D01*
X154639760Y-59841132D01*
X154639609Y-59840077D01*
X154576871Y-59840010D01*
X154517186Y-59801561D01*
X154487763Y-59736949D01*
X154486500Y-59719152D01*
X154486500Y-58863500D01*
X154506502Y-58795379D01*
X154560158Y-58748886D01*
X154612500Y-58737500D01*
X155070960Y-58737500D01*
X155139081Y-58757502D01*
G37*
%TD.AperFunction*%
%TA.AperFunction,NonConductor*%
G36*
X160512984Y-58757502D02*
G01*
X160559477Y-58811158D01*
X160569581Y-58881432D01*
X160540087Y-58946012D01*
X160533958Y-58952595D01*
X159534306Y-59952247D01*
X159471994Y-59986273D01*
X159401179Y-59981208D01*
X159341371Y-59934520D01*
X159312064Y-59891878D01*
X159285357Y-59853019D01*
X159279686Y-59847966D01*
X159162993Y-59743996D01*
X159162990Y-59743994D01*
X159157321Y-59738943D01*
X159119943Y-59719152D01*
X159012481Y-59662254D01*
X159012482Y-59662254D01*
X159005769Y-59658700D01*
X158998404Y-59656850D01*
X158846822Y-59618775D01*
X158846818Y-59618775D01*
X158839451Y-59616924D01*
X158831852Y-59616884D01*
X158831850Y-59616884D01*
X158807589Y-59616757D01*
X158791304Y-59616672D01*
X158723288Y-59596314D01*
X158677077Y-59542416D01*
X158666876Y-59505812D01*
X158650265Y-59368549D01*
X158650264Y-59368546D01*
X158649352Y-59361008D01*
X158588737Y-59200594D01*
X158527116Y-59110935D01*
X158495909Y-59065528D01*
X158495908Y-59065526D01*
X158491607Y-59059269D01*
X158477552Y-59046746D01*
X158433931Y-59007882D01*
X158396376Y-58947632D01*
X158391750Y-58913805D01*
X158391750Y-58863500D01*
X158411752Y-58795379D01*
X158465408Y-58748886D01*
X158517750Y-58737500D01*
X160444863Y-58737500D01*
X160512984Y-58757502D01*
G37*
%TD.AperFunction*%
%TA.AperFunction,NonConductor*%
G36*
X171392121Y-58757502D02*
G01*
X171438614Y-58811158D01*
X171450000Y-58863500D01*
X171450000Y-78019750D01*
X171429998Y-78087871D01*
X171376342Y-78134364D01*
X171324000Y-78145750D01*
X157395080Y-78145750D01*
X157326959Y-78125748D01*
X157305985Y-78108845D01*
X156871763Y-77674623D01*
X156837737Y-77612311D01*
X156842802Y-77541496D01*
X156879027Y-77489717D01*
X156888328Y-77481773D01*
X156894105Y-77476839D01*
X156994174Y-77337580D01*
X157058135Y-77178470D01*
X157082297Y-77008697D01*
X157082454Y-76993750D01*
X157061852Y-76823508D01*
X157001237Y-76663094D01*
X156904107Y-76521769D01*
X156898436Y-76516716D01*
X156781743Y-76412746D01*
X156781740Y-76412744D01*
X156776071Y-76407693D01*
X156768075Y-76403459D01*
X156631231Y-76331004D01*
X156631232Y-76331004D01*
X156624519Y-76327450D01*
X156606946Y-76323036D01*
X156465572Y-76287525D01*
X156465568Y-76287525D01*
X156458201Y-76285674D01*
X156450602Y-76285634D01*
X156450600Y-76285634D01*
X156379144Y-76285260D01*
X156286719Y-76284776D01*
X156279339Y-76286548D01*
X156279337Y-76286548D01*
X156127352Y-76323036D01*
X156127348Y-76323037D01*
X156119973Y-76324808D01*
X155967589Y-76403459D01*
X155838365Y-76516189D01*
X155739760Y-76656489D01*
X155677468Y-76816259D01*
X155655085Y-76986276D01*
X155673903Y-77156725D01*
X155676512Y-77163856D01*
X155676513Y-77163858D01*
X155684438Y-77185514D01*
X155732835Y-77317765D01*
X155828480Y-77460099D01*
X155834098Y-77465211D01*
X155892049Y-77517942D01*
X155928972Y-77578582D01*
X155933250Y-77611136D01*
X155933250Y-77754175D01*
X155932377Y-77768983D01*
X155928548Y-77801334D01*
X155930240Y-77810598D01*
X155930240Y-77810600D01*
X155938729Y-77857081D01*
X155939379Y-77860984D01*
X155947801Y-77917001D01*
X155950822Y-77923292D01*
X155952076Y-77930159D01*
X155956418Y-77938517D01*
X155978210Y-77980470D01*
X155979972Y-77983997D01*
X156004488Y-78035052D01*
X156009224Y-78040176D01*
X156012443Y-78046372D01*
X156016607Y-78051247D01*
X156052553Y-78087193D01*
X156055982Y-78090758D01*
X156093381Y-78131216D01*
X156099570Y-78134810D01*
X156105331Y-78139971D01*
X156689765Y-78724405D01*
X156723791Y-78786717D01*
X156718726Y-78857532D01*
X156676179Y-78914368D01*
X156609659Y-78939179D01*
X156600670Y-78939500D01*
X154572015Y-78939500D01*
X154503894Y-78919498D01*
X154457401Y-78865842D01*
X154446015Y-78813313D01*
X154446055Y-78786717D01*
X154458729Y-70250501D01*
X154444676Y-70250706D01*
X154444675Y-70250706D01*
X154325087Y-70252452D01*
X153987500Y-70257380D01*
X152441276Y-70279952D01*
X152500180Y-67879625D01*
X154458729Y-67864899D01*
X154458612Y-67850327D01*
X154407047Y-61458107D01*
X154426499Y-61389828D01*
X154443947Y-61367996D01*
X154951037Y-60860905D01*
X155013350Y-60826880D01*
X155040133Y-60824000D01*
X158196867Y-60824000D01*
X158264988Y-60844002D01*
X158281666Y-60856806D01*
X158336565Y-60906760D01*
X158345912Y-60911835D01*
X158347486Y-60913401D01*
X158349433Y-60914785D01*
X158349202Y-60915109D01*
X158396235Y-60961913D01*
X158411496Y-61031250D01*
X158386847Y-61097831D01*
X158374890Y-61111663D01*
X158046458Y-61440095D01*
X157984146Y-61474121D01*
X157957363Y-61477000D01*
X157785694Y-61477000D01*
X157717573Y-61456998D01*
X157698088Y-61440260D01*
X157697857Y-61440519D01*
X157575493Y-61331496D01*
X157575490Y-61331494D01*
X157569821Y-61326443D01*
X157561825Y-61322209D01*
X157424981Y-61249754D01*
X157424982Y-61249754D01*
X157418269Y-61246200D01*
X157400696Y-61241786D01*
X157259322Y-61206275D01*
X157259318Y-61206275D01*
X157251951Y-61204424D01*
X157244352Y-61204384D01*
X157244350Y-61204384D01*
X157172894Y-61204010D01*
X157080469Y-61203526D01*
X157073089Y-61205298D01*
X157073087Y-61205298D01*
X156921102Y-61241786D01*
X156921098Y-61241787D01*
X156913723Y-61243558D01*
X156761339Y-61322209D01*
X156632115Y-61434939D01*
X156533510Y-61575239D01*
X156530750Y-61582319D01*
X156493323Y-61678314D01*
X156471218Y-61735009D01*
X156470226Y-61742542D01*
X156470226Y-61742543D01*
X156450608Y-61891561D01*
X156448835Y-61905026D01*
X156467653Y-62075475D01*
X156526585Y-62236515D01*
X156530822Y-62242821D01*
X156530824Y-62242824D01*
X156570100Y-62301272D01*
X156622230Y-62378849D01*
X156749065Y-62494260D01*
X156899768Y-62576085D01*
X157065639Y-62619601D01*
X157153086Y-62620974D01*
X157229503Y-62622175D01*
X157229506Y-62622175D01*
X157237102Y-62622294D01*
X157244506Y-62620598D01*
X157244508Y-62620598D01*
X157348956Y-62596676D01*
X157404259Y-62584010D01*
X157557458Y-62506959D01*
X157563229Y-62502030D01*
X157563232Y-62502028D01*
X157682079Y-62400523D01*
X157682082Y-62400519D01*
X157687855Y-62395589D01*
X157692288Y-62389419D01*
X157692937Y-62388714D01*
X157753770Y-62352109D01*
X157785686Y-62348000D01*
X158156618Y-62348000D01*
X158171426Y-62348873D01*
X158203777Y-62352702D01*
X158213041Y-62351010D01*
X158213043Y-62351010D01*
X158259524Y-62342521D01*
X158263427Y-62341871D01*
X158270635Y-62340787D01*
X158319444Y-62333449D01*
X158325735Y-62330428D01*
X158332602Y-62329174D01*
X158382925Y-62303034D01*
X158386440Y-62301278D01*
X158437495Y-62276762D01*
X158442619Y-62272026D01*
X158448815Y-62268807D01*
X158453690Y-62264643D01*
X158489636Y-62228697D01*
X158493202Y-62225267D01*
X158526744Y-62194261D01*
X158533659Y-62187869D01*
X158537253Y-62181680D01*
X158542414Y-62175919D01*
X161415626Y-59302707D01*
X161426716Y-59292852D01*
X161444903Y-59278515D01*
X161444907Y-59278511D01*
X161452302Y-59272681D01*
X161484526Y-59226056D01*
X161486813Y-59222856D01*
X161514884Y-59184851D01*
X161514885Y-59184849D01*
X161520477Y-59177278D01*
X161522790Y-59170693D01*
X161526758Y-59164951D01*
X161543841Y-59110935D01*
X161545094Y-59107179D01*
X161560748Y-59062604D01*
X161563868Y-59053720D01*
X161564142Y-59046746D01*
X161566247Y-59040090D01*
X161566750Y-59033698D01*
X161566750Y-58982841D01*
X161566847Y-58977895D01*
X161568036Y-58947632D01*
X161569009Y-58922865D01*
X161567175Y-58915948D01*
X161566750Y-58908227D01*
X161566750Y-58863500D01*
X161586752Y-58795379D01*
X161640408Y-58748886D01*
X161692750Y-58737500D01*
X171324000Y-58737500D01*
X171392121Y-58757502D01*
G37*
%TD.AperFunction*%
%TA.AperFunction,NonConductor*%
G36*
X171392121Y-79036752D02*
G01*
X171438614Y-79090408D01*
X171450000Y-79142750D01*
X171450000Y-80042750D01*
X171429998Y-80110871D01*
X171376342Y-80157364D01*
X171324000Y-80168750D01*
X161005580Y-80168750D01*
X160937459Y-80148748D01*
X160916485Y-80131845D01*
X160016485Y-79231845D01*
X159982459Y-79169533D01*
X159987524Y-79098718D01*
X160030071Y-79041882D01*
X160096591Y-79017071D01*
X160105580Y-79016750D01*
X171324000Y-79016750D01*
X171392121Y-79036752D01*
G37*
%TD.AperFunction*%
%TA.AperFunction,NonConductor*%
G36*
X159379291Y-79830502D02*
G01*
X159400265Y-79847405D01*
X159506515Y-79953655D01*
X159540541Y-80015967D01*
X159535476Y-80086782D01*
X159492929Y-80143618D01*
X159426409Y-80168429D01*
X159417420Y-80168750D01*
X154570190Y-80168750D01*
X154502069Y-80148748D01*
X154455576Y-80095092D01*
X154444190Y-80042563D01*
X154444348Y-79936313D01*
X154464451Y-79868222D01*
X154518176Y-79821809D01*
X154570348Y-79810500D01*
X159311170Y-79810500D01*
X159379291Y-79830502D01*
G37*
%TD.AperFunction*%
%TA.AperFunction,NonConductor*%
G36*
X153929621Y-63520002D02*
G01*
X153976114Y-63573658D01*
X153987500Y-63626000D01*
X153987500Y-76074000D01*
X153967498Y-76142121D01*
X153913842Y-76188614D01*
X153861500Y-76200000D01*
X141413500Y-76200000D01*
X141345379Y-76179998D01*
X141298886Y-76126342D01*
X141287500Y-76074000D01*
X141287500Y-64327285D01*
X141307502Y-64259164D01*
X141361158Y-64212671D01*
X141385370Y-64204465D01*
X141521858Y-64173205D01*
X141529259Y-64171510D01*
X141682458Y-64094459D01*
X141688229Y-64089530D01*
X141688232Y-64089528D01*
X141807078Y-63988023D01*
X141812855Y-63983089D01*
X141912924Y-63843830D01*
X141976885Y-63684720D01*
X141987769Y-63608246D01*
X142017170Y-63543623D01*
X142076842Y-63505155D01*
X142112512Y-63500000D01*
X153861500Y-63500000D01*
X153929621Y-63520002D01*
G37*
%TD.AperFunction*%
%TA.AperFunction,Conductor*%
%TO.N,GND*%
G36*
X153135871Y-9853502D02*
G01*
X153182364Y-9907158D01*
X153193750Y-9959500D01*
X153193750Y-11576233D01*
X153173748Y-11644354D01*
X153120092Y-11690847D01*
X153049818Y-11700951D01*
X152985238Y-11671457D01*
X152947128Y-11612652D01*
X152895731Y-11442421D01*
X152891059Y-11431084D01*
X152804040Y-11267423D01*
X152797251Y-11257206D01*
X152680103Y-11113567D01*
X152671459Y-11104863D01*
X152528644Y-10986716D01*
X152518473Y-10979856D01*
X152355424Y-10891696D01*
X152344119Y-10886944D01*
X152228808Y-10851250D01*
X152214705Y-10851044D01*
X152211500Y-10857799D01*
X152211500Y-13380424D01*
X152215473Y-13393955D01*
X152223268Y-13395075D01*
X152331021Y-13363362D01*
X152342389Y-13358769D01*
X152506654Y-13272893D01*
X152516915Y-13266179D01*
X152661373Y-13150032D01*
X152670132Y-13141454D01*
X152789278Y-12999461D01*
X152796208Y-12989341D01*
X152885502Y-12826915D01*
X152890333Y-12815645D01*
X152947648Y-12634964D01*
X152987311Y-12576080D01*
X153052513Y-12547988D01*
X153122553Y-12559605D01*
X153175193Y-12607245D01*
X153193750Y-12673063D01*
X153193750Y-15506233D01*
X153173748Y-15574354D01*
X153120092Y-15620847D01*
X153049818Y-15630951D01*
X152985238Y-15601457D01*
X152947128Y-15542652D01*
X152895731Y-15372421D01*
X152891059Y-15361084D01*
X152804040Y-15197423D01*
X152797251Y-15187206D01*
X152680103Y-15043567D01*
X152671459Y-15034863D01*
X152528644Y-14916716D01*
X152518473Y-14909856D01*
X152355424Y-14821696D01*
X152344119Y-14816944D01*
X152228808Y-14781250D01*
X152214705Y-14781044D01*
X152211500Y-14787799D01*
X152211500Y-16430500D01*
X152191498Y-16498621D01*
X152137842Y-16545114D01*
X152085500Y-16556500D01*
X151829500Y-16556500D01*
X151761379Y-16536498D01*
X151714886Y-16482842D01*
X151703500Y-16430500D01*
X151703500Y-14794576D01*
X151699527Y-14781045D01*
X151691732Y-14779925D01*
X151583979Y-14811638D01*
X151572611Y-14816231D01*
X151408346Y-14902107D01*
X151398085Y-14908821D01*
X151253627Y-15024968D01*
X151244868Y-15033546D01*
X151125722Y-15175539D01*
X151118792Y-15185660D01*
X151097920Y-15223626D01*
X151047575Y-15273685D01*
X150978158Y-15288578D01*
X150913443Y-15264860D01*
X150908602Y-15261343D01*
X150902821Y-15255914D01*
X150762560Y-15178805D01*
X150607530Y-15139000D01*
X150487644Y-15139000D01*
X150430932Y-15146165D01*
X150376568Y-15153032D01*
X150376565Y-15153033D01*
X150368703Y-15154026D01*
X150219883Y-15212948D01*
X150213472Y-15217606D01*
X150213470Y-15217607D01*
X150166002Y-15252095D01*
X150090393Y-15307028D01*
X149988367Y-15430356D01*
X149984994Y-15437523D01*
X149984992Y-15437527D01*
X149958452Y-15493929D01*
X149920217Y-15575182D01*
X149890225Y-15732406D01*
X149900275Y-15892150D01*
X149902724Y-15899686D01*
X149902724Y-15899688D01*
X149927842Y-15976991D01*
X149949736Y-16044375D01*
X150035500Y-16179518D01*
X150152179Y-16289086D01*
X150292440Y-16366195D01*
X150447470Y-16406000D01*
X150567356Y-16406000D01*
X150624068Y-16398835D01*
X150678432Y-16391968D01*
X150678435Y-16391967D01*
X150686297Y-16390974D01*
X150777117Y-16355016D01*
X150847816Y-16348537D01*
X150910796Y-16381309D01*
X150946060Y-16442929D01*
X150949500Y-16472168D01*
X150949500Y-16542750D01*
X150929498Y-16610871D01*
X150875842Y-16657364D01*
X150823500Y-16668750D01*
X144451500Y-16668750D01*
X144383379Y-16648748D01*
X144336886Y-16595092D01*
X144325500Y-16542750D01*
X144325500Y-16476479D01*
X144345502Y-16408358D01*
X144399158Y-16361865D01*
X144469432Y-16351761D01*
X144497463Y-16361116D01*
X144498120Y-16359457D01*
X144505493Y-16362376D01*
X144512440Y-16366195D01*
X144667470Y-16406000D01*
X144787356Y-16406000D01*
X144844068Y-16398835D01*
X144898432Y-16391968D01*
X144898435Y-16391967D01*
X144906297Y-16390974D01*
X145055117Y-16332052D01*
X145184607Y-16237972D01*
X145286633Y-16114644D01*
X145290006Y-16107477D01*
X145290008Y-16107473D01*
X145323248Y-16036833D01*
X145354783Y-15969818D01*
X145384775Y-15812594D01*
X145374725Y-15652850D01*
X145362555Y-15615395D01*
X145327715Y-15508167D01*
X145327714Y-15508164D01*
X145325264Y-15500625D01*
X145239500Y-15365482D01*
X145122821Y-15255914D01*
X144982560Y-15178805D01*
X144827530Y-15139000D01*
X144707644Y-15139000D01*
X144650932Y-15146165D01*
X144596568Y-15153032D01*
X144596565Y-15153033D01*
X144588703Y-15154026D01*
X144439883Y-15212948D01*
X144433472Y-15217606D01*
X144433470Y-15217607D01*
X144364125Y-15267989D01*
X144297257Y-15291848D01*
X144228105Y-15275767D01*
X144178812Y-15225205D01*
X144164043Y-15197427D01*
X144157251Y-15187206D01*
X144040103Y-15043567D01*
X144031459Y-15034863D01*
X143888644Y-14916716D01*
X143878473Y-14909856D01*
X143715424Y-14821696D01*
X143704119Y-14816944D01*
X143588808Y-14781250D01*
X143574705Y-14781044D01*
X143571500Y-14787799D01*
X143571500Y-16430500D01*
X143551498Y-16498621D01*
X143497842Y-16545114D01*
X143445500Y-16556500D01*
X143189500Y-16556500D01*
X143121379Y-16536498D01*
X143074886Y-16482842D01*
X143063500Y-16430500D01*
X143063500Y-14794576D01*
X143059527Y-14781045D01*
X143051732Y-14779925D01*
X142943979Y-14811638D01*
X142932611Y-14816231D01*
X142768346Y-14902107D01*
X142758085Y-14908821D01*
X142613627Y-15024968D01*
X142604868Y-15033546D01*
X142485722Y-15175539D01*
X142478792Y-15185659D01*
X142389498Y-15348085D01*
X142384667Y-15359355D01*
X142327352Y-15540036D01*
X142287689Y-15598920D01*
X142222487Y-15627012D01*
X142152447Y-15615395D01*
X142099807Y-15567755D01*
X142081250Y-15501937D01*
X142081250Y-12668767D01*
X142101252Y-12600646D01*
X142154908Y-12554153D01*
X142225182Y-12544049D01*
X142289762Y-12573543D01*
X142327872Y-12632348D01*
X142379269Y-12802579D01*
X142383941Y-12813916D01*
X142470960Y-12977577D01*
X142477749Y-12987794D01*
X142594897Y-13131433D01*
X142603541Y-13140137D01*
X142746356Y-13258284D01*
X142756527Y-13265144D01*
X142919576Y-13353304D01*
X142930881Y-13358056D01*
X143046192Y-13393750D01*
X143060295Y-13393956D01*
X143063500Y-13387201D01*
X143063500Y-13380424D01*
X143571500Y-13380424D01*
X143575473Y-13393955D01*
X143583268Y-13395075D01*
X143691021Y-13363362D01*
X143702389Y-13358769D01*
X143866654Y-13272893D01*
X143876915Y-13266179D01*
X144021373Y-13150032D01*
X144030132Y-13141454D01*
X144149278Y-12999461D01*
X144156208Y-12989341D01*
X144245502Y-12826915D01*
X144250334Y-12815642D01*
X144306380Y-12638962D01*
X144308930Y-12626968D01*
X144325107Y-12482739D01*
X144325500Y-12475715D01*
X144325500Y-12469157D01*
X150949500Y-12469157D01*
X150949801Y-12475305D01*
X150963312Y-12613103D01*
X150965695Y-12625138D01*
X151019267Y-12802576D01*
X151023941Y-12813916D01*
X151110960Y-12977577D01*
X151117749Y-12987794D01*
X151234897Y-13131433D01*
X151243541Y-13140137D01*
X151386356Y-13258284D01*
X151396527Y-13265144D01*
X151559576Y-13353304D01*
X151570881Y-13358056D01*
X151686192Y-13393750D01*
X151700295Y-13393956D01*
X151703500Y-13387201D01*
X151703500Y-12394615D01*
X151699025Y-12379376D01*
X151697635Y-12378171D01*
X151689952Y-12376500D01*
X150967615Y-12376500D01*
X150952376Y-12380975D01*
X150951171Y-12382365D01*
X150949500Y-12390048D01*
X150949500Y-12469157D01*
X144325500Y-12469157D01*
X144325500Y-12394615D01*
X144321025Y-12379376D01*
X144319635Y-12378171D01*
X144311952Y-12376500D01*
X143589615Y-12376500D01*
X143574376Y-12380975D01*
X143573171Y-12382365D01*
X143571500Y-12390048D01*
X143571500Y-13380424D01*
X143063500Y-13380424D01*
X143063500Y-11850385D01*
X143571500Y-11850385D01*
X143575975Y-11865624D01*
X143577365Y-11866829D01*
X143585048Y-11868500D01*
X144307385Y-11868500D01*
X144322624Y-11864025D01*
X144323829Y-11862635D01*
X144325500Y-11854952D01*
X144325500Y-11850385D01*
X150949500Y-11850385D01*
X150953975Y-11865624D01*
X150955365Y-11866829D01*
X150963048Y-11868500D01*
X151685385Y-11868500D01*
X151700624Y-11864025D01*
X151701829Y-11862635D01*
X151703500Y-11854952D01*
X151703500Y-10864576D01*
X151699527Y-10851045D01*
X151691732Y-10849925D01*
X151583979Y-10881638D01*
X151572611Y-10886231D01*
X151408346Y-10972107D01*
X151398085Y-10978821D01*
X151253627Y-11094968D01*
X151244868Y-11103546D01*
X151125722Y-11245539D01*
X151118792Y-11255659D01*
X151029498Y-11418085D01*
X151024666Y-11429358D01*
X150968620Y-11606038D01*
X150966070Y-11618032D01*
X150949893Y-11762261D01*
X150949500Y-11769285D01*
X150949500Y-11850385D01*
X144325500Y-11850385D01*
X144325500Y-11775843D01*
X144325199Y-11769695D01*
X144311688Y-11631897D01*
X144309305Y-11619862D01*
X144255733Y-11442424D01*
X144251059Y-11431084D01*
X144164040Y-11267423D01*
X144157251Y-11257206D01*
X144040103Y-11113567D01*
X144031459Y-11104863D01*
X143888644Y-10986716D01*
X143878473Y-10979856D01*
X143715424Y-10891696D01*
X143704119Y-10886944D01*
X143588808Y-10851250D01*
X143574705Y-10851044D01*
X143571500Y-10857799D01*
X143571500Y-11850385D01*
X143063500Y-11850385D01*
X143063500Y-10864576D01*
X143059527Y-10851045D01*
X143051732Y-10849925D01*
X142943979Y-10881638D01*
X142932611Y-10886231D01*
X142768346Y-10972107D01*
X142758085Y-10978821D01*
X142613627Y-11094968D01*
X142604868Y-11103546D01*
X142485722Y-11245539D01*
X142478792Y-11255659D01*
X142389498Y-11418085D01*
X142384667Y-11429355D01*
X142327352Y-11610036D01*
X142287689Y-11668920D01*
X142222487Y-11697012D01*
X142152447Y-11685395D01*
X142099807Y-11637755D01*
X142081250Y-11571937D01*
X142081250Y-9959500D01*
X142101252Y-9891379D01*
X142154908Y-9844886D01*
X142207250Y-9833500D01*
X153067750Y-9833500D01*
X153135871Y-9853502D01*
G37*
%TD.AperFunction*%
%TD*%
M02*
