%TF.GenerationSoftware,KiCad,Pcbnew,(6.0.5)*%
%TF.CreationDate,2022-06-07T11:57:36-07:00*%
%TF.ProjectId,sdvx-pcb,73647678-2d70-4636-922e-6b696361645f,rev?*%
%TF.SameCoordinates,Original*%
%TF.FileFunction,Legend,Top*%
%TF.FilePolarity,Positive*%
%FSLAX46Y46*%
G04 Gerber Fmt 4.6, Leading zero omitted, Abs format (unit mm)*
G04 Created by KiCad (PCBNEW (6.0.5)) date 2022-06-07 11:57:36*
%MOMM*%
%LPD*%
G01*
G04 APERTURE LIST*
%ADD10C,0.300000*%
%ADD11C,0.150000*%
%ADD12C,0.120000*%
G04 APERTURE END LIST*
D10*
X144673214Y-51407142D02*
X144887500Y-51478571D01*
X145244642Y-51478571D01*
X145387500Y-51407142D01*
X145458928Y-51335714D01*
X145530357Y-51192857D01*
X145530357Y-51050000D01*
X145458928Y-50907142D01*
X145387500Y-50835714D01*
X145244642Y-50764285D01*
X144958928Y-50692857D01*
X144816071Y-50621428D01*
X144744642Y-50550000D01*
X144673214Y-50407142D01*
X144673214Y-50264285D01*
X144744642Y-50121428D01*
X144816071Y-50050000D01*
X144958928Y-49978571D01*
X145316071Y-49978571D01*
X145530357Y-50050000D01*
X145958928Y-49978571D02*
X146816071Y-49978571D01*
X146387500Y-51478571D02*
X146387500Y-49978571D01*
X147244642Y-51050000D02*
X147958928Y-51050000D01*
X147101785Y-51478571D02*
X147601785Y-49978571D01*
X148101785Y-51478571D01*
X149458928Y-51478571D02*
X148958928Y-50764285D01*
X148601785Y-51478571D02*
X148601785Y-49978571D01*
X149173214Y-49978571D01*
X149316071Y-50050000D01*
X149387500Y-50121428D01*
X149458928Y-50264285D01*
X149458928Y-50478571D01*
X149387500Y-50621428D01*
X149316071Y-50692857D01*
X149173214Y-50764285D01*
X148601785Y-50764285D01*
X149887500Y-49978571D02*
X150744642Y-49978571D01*
X150316071Y-51478571D02*
X150316071Y-49978571D01*
D11*
X161333928Y-161817857D02*
X160833928Y-161817857D01*
X160833928Y-162603571D02*
X160833928Y-161103571D01*
X161548214Y-161103571D01*
X161976785Y-161103571D02*
X162976785Y-162603571D01*
X162976785Y-161103571D02*
X161976785Y-162603571D01*
X163548214Y-162032142D02*
X164691071Y-162032142D01*
X166262500Y-162603571D02*
X165762500Y-161889285D01*
X165405357Y-162603571D02*
X165405357Y-161103571D01*
X165976785Y-161103571D01*
X166119642Y-161175000D01*
X166191071Y-161246428D01*
X166262500Y-161389285D01*
X166262500Y-161603571D01*
X166191071Y-161746428D01*
X166119642Y-161817857D01*
X165976785Y-161889285D01*
X165405357Y-161889285D01*
X91626785Y-161817857D02*
X91126785Y-161817857D01*
X91126785Y-162603571D02*
X91126785Y-161103571D01*
X91841071Y-161103571D01*
X92269642Y-161103571D02*
X93269642Y-162603571D01*
X93269642Y-161103571D02*
X92269642Y-162603571D01*
X93841071Y-162032142D02*
X94983928Y-162032142D01*
X96412500Y-162603571D02*
X95698214Y-162603571D01*
X95698214Y-161103571D01*
X185975892Y-116574107D02*
X186190178Y-116645535D01*
X186261607Y-116716964D01*
X186333035Y-116859821D01*
X186333035Y-117074107D01*
X186261607Y-117216964D01*
X186190178Y-117288392D01*
X186047321Y-117359821D01*
X185475892Y-117359821D01*
X185475892Y-115859821D01*
X185975892Y-115859821D01*
X186118750Y-115931250D01*
X186190178Y-116002678D01*
X186261607Y-116145535D01*
X186261607Y-116288392D01*
X186190178Y-116431250D01*
X186118750Y-116502678D01*
X185975892Y-116574107D01*
X185475892Y-116574107D01*
X186761607Y-115859821D02*
X187618750Y-115859821D01*
X187190178Y-117359821D02*
X187190178Y-115859821D01*
X188118750Y-116788392D02*
X189261607Y-116788392D01*
X189975892Y-117359821D02*
X189975892Y-115859821D01*
X190333035Y-115859821D01*
X190547321Y-115931250D01*
X190690178Y-116074107D01*
X190761607Y-116216964D01*
X190833035Y-116502678D01*
X190833035Y-116716964D01*
X190761607Y-117002678D01*
X190690178Y-117145535D01*
X190547321Y-117288392D01*
X190333035Y-117359821D01*
X189975892Y-117359821D01*
X151050892Y-116574107D02*
X151265178Y-116645535D01*
X151336607Y-116716964D01*
X151408035Y-116859821D01*
X151408035Y-117074107D01*
X151336607Y-117216964D01*
X151265178Y-117288392D01*
X151122321Y-117359821D01*
X150550892Y-117359821D01*
X150550892Y-115859821D01*
X151050892Y-115859821D01*
X151193750Y-115931250D01*
X151265178Y-116002678D01*
X151336607Y-116145535D01*
X151336607Y-116288392D01*
X151265178Y-116431250D01*
X151193750Y-116502678D01*
X151050892Y-116574107D01*
X150550892Y-116574107D01*
X151836607Y-115859821D02*
X152693750Y-115859821D01*
X152265178Y-117359821D02*
X152265178Y-115859821D01*
X153193750Y-116788392D02*
X154336607Y-116788392D01*
X155908035Y-117216964D02*
X155836607Y-117288392D01*
X155622321Y-117359821D01*
X155479464Y-117359821D01*
X155265178Y-117288392D01*
X155122321Y-117145535D01*
X155050892Y-117002678D01*
X154979464Y-116716964D01*
X154979464Y-116502678D01*
X155050892Y-116216964D01*
X155122321Y-116074107D01*
X155265178Y-115931250D01*
X155479464Y-115859821D01*
X155622321Y-115859821D01*
X155836607Y-115931250D01*
X155908035Y-116002678D01*
X116125892Y-116574107D02*
X116340178Y-116645535D01*
X116411607Y-116716964D01*
X116483035Y-116859821D01*
X116483035Y-117074107D01*
X116411607Y-117216964D01*
X116340178Y-117288392D01*
X116197321Y-117359821D01*
X115625892Y-117359821D01*
X115625892Y-115859821D01*
X116125892Y-115859821D01*
X116268750Y-115931250D01*
X116340178Y-116002678D01*
X116411607Y-116145535D01*
X116411607Y-116288392D01*
X116340178Y-116431250D01*
X116268750Y-116502678D01*
X116125892Y-116574107D01*
X115625892Y-116574107D01*
X116911607Y-115859821D02*
X117768750Y-115859821D01*
X117340178Y-117359821D02*
X117340178Y-115859821D01*
X118268750Y-116788392D02*
X119411607Y-116788392D01*
X120625892Y-116574107D02*
X120840178Y-116645535D01*
X120911607Y-116716964D01*
X120983035Y-116859821D01*
X120983035Y-117074107D01*
X120911607Y-117216964D01*
X120840178Y-117288392D01*
X120697321Y-117359821D01*
X120125892Y-117359821D01*
X120125892Y-115859821D01*
X120625892Y-115859821D01*
X120768750Y-115931250D01*
X120840178Y-116002678D01*
X120911607Y-116145535D01*
X120911607Y-116288392D01*
X120840178Y-116431250D01*
X120768750Y-116502678D01*
X120625892Y-116574107D01*
X120125892Y-116574107D01*
X81308035Y-116574107D02*
X81522321Y-116645535D01*
X81593750Y-116716964D01*
X81665178Y-116859821D01*
X81665178Y-117074107D01*
X81593750Y-117216964D01*
X81522321Y-117288392D01*
X81379464Y-117359821D01*
X80808035Y-117359821D01*
X80808035Y-115859821D01*
X81308035Y-115859821D01*
X81450892Y-115931250D01*
X81522321Y-116002678D01*
X81593750Y-116145535D01*
X81593750Y-116288392D01*
X81522321Y-116431250D01*
X81450892Y-116502678D01*
X81308035Y-116574107D01*
X80808035Y-116574107D01*
X82093750Y-115859821D02*
X82950892Y-115859821D01*
X82522321Y-117359821D02*
X82522321Y-115859821D01*
X83450892Y-116788392D02*
X84593750Y-116788392D01*
X85236607Y-116931250D02*
X85950892Y-116931250D01*
X85093750Y-117359821D02*
X85593750Y-115859821D01*
X86093750Y-117359821D01*
X191294642Y-40139880D02*
X191294642Y-39139880D01*
X191675595Y-39139880D01*
X191770833Y-39187500D01*
X191818452Y-39235119D01*
X191866071Y-39330357D01*
X191866071Y-39473214D01*
X191818452Y-39568452D01*
X191770833Y-39616071D01*
X191675595Y-39663690D01*
X191294642Y-39663690D01*
X192294642Y-40139880D02*
X192294642Y-39473214D01*
X192294642Y-39663690D02*
X192342261Y-39568452D01*
X192389880Y-39520833D01*
X192485119Y-39473214D01*
X192580357Y-39473214D01*
X193294642Y-40092261D02*
X193199404Y-40139880D01*
X193008928Y-40139880D01*
X192913690Y-40092261D01*
X192866071Y-39997023D01*
X192866071Y-39616071D01*
X192913690Y-39520833D01*
X193008928Y-39473214D01*
X193199404Y-39473214D01*
X193294642Y-39520833D01*
X193342261Y-39616071D01*
X193342261Y-39711309D01*
X192866071Y-39806547D01*
X193723214Y-40092261D02*
X193818452Y-40139880D01*
X194008928Y-40139880D01*
X194104166Y-40092261D01*
X194151785Y-39997023D01*
X194151785Y-39949404D01*
X194104166Y-39854166D01*
X194008928Y-39806547D01*
X193866071Y-39806547D01*
X193770833Y-39758928D01*
X193723214Y-39663690D01*
X193723214Y-39616071D01*
X193770833Y-39520833D01*
X193866071Y-39473214D01*
X194008928Y-39473214D01*
X194104166Y-39520833D01*
X194532738Y-40092261D02*
X194627976Y-40139880D01*
X194818452Y-40139880D01*
X194913690Y-40092261D01*
X194961309Y-39997023D01*
X194961309Y-39949404D01*
X194913690Y-39854166D01*
X194818452Y-39806547D01*
X194675595Y-39806547D01*
X194580357Y-39758928D01*
X194532738Y-39663690D01*
X194532738Y-39616071D01*
X194580357Y-39520833D01*
X194675595Y-39473214D01*
X194818452Y-39473214D01*
X194913690Y-39520833D01*
X196008928Y-39473214D02*
X196389880Y-39473214D01*
X196151785Y-39139880D02*
X196151785Y-39997023D01*
X196199404Y-40092261D01*
X196294642Y-40139880D01*
X196389880Y-40139880D01*
X196866071Y-40139880D02*
X196770833Y-40092261D01*
X196723214Y-40044642D01*
X196675595Y-39949404D01*
X196675595Y-39663690D01*
X196723214Y-39568452D01*
X196770833Y-39520833D01*
X196866071Y-39473214D01*
X197008928Y-39473214D01*
X197104166Y-39520833D01*
X197151785Y-39568452D01*
X197199404Y-39663690D01*
X197199404Y-39949404D01*
X197151785Y-40044642D01*
X197104166Y-40092261D01*
X197008928Y-40139880D01*
X196866071Y-40139880D01*
X198389880Y-40139880D02*
X198389880Y-39473214D01*
X198389880Y-39663690D02*
X198437500Y-39568452D01*
X198485119Y-39520833D01*
X198580357Y-39473214D01*
X198675595Y-39473214D01*
X199389880Y-40092261D02*
X199294642Y-40139880D01*
X199104166Y-40139880D01*
X199008928Y-40092261D01*
X198961309Y-39997023D01*
X198961309Y-39616071D01*
X199008928Y-39520833D01*
X199104166Y-39473214D01*
X199294642Y-39473214D01*
X199389880Y-39520833D01*
X199437500Y-39616071D01*
X199437500Y-39711309D01*
X198961309Y-39806547D01*
X199818452Y-40092261D02*
X199913690Y-40139880D01*
X200104166Y-40139880D01*
X200199404Y-40092261D01*
X200247023Y-39997023D01*
X200247023Y-39949404D01*
X200199404Y-39854166D01*
X200104166Y-39806547D01*
X199961309Y-39806547D01*
X199866071Y-39758928D01*
X199818452Y-39663690D01*
X199818452Y-39616071D01*
X199866071Y-39520833D01*
X199961309Y-39473214D01*
X200104166Y-39473214D01*
X200199404Y-39520833D01*
X201056547Y-40092261D02*
X200961309Y-40139880D01*
X200770833Y-40139880D01*
X200675595Y-40092261D01*
X200627976Y-39997023D01*
X200627976Y-39616071D01*
X200675595Y-39520833D01*
X200770833Y-39473214D01*
X200961309Y-39473214D01*
X201056547Y-39520833D01*
X201104166Y-39616071D01*
X201104166Y-39711309D01*
X200627976Y-39806547D01*
X201389880Y-39473214D02*
X201770833Y-39473214D01*
X201532738Y-39139880D02*
X201532738Y-39997023D01*
X201580357Y-40092261D01*
X201675595Y-40139880D01*
X201770833Y-40139880D01*
X202866071Y-40139880D02*
X202866071Y-39139880D01*
X203199404Y-39854166D01*
X203532738Y-39139880D01*
X203532738Y-40139880D01*
X204580357Y-40044642D02*
X204532738Y-40092261D01*
X204389880Y-40139880D01*
X204294642Y-40139880D01*
X204151785Y-40092261D01*
X204056547Y-39997023D01*
X204008928Y-39901785D01*
X203961309Y-39711309D01*
X203961309Y-39568452D01*
X204008928Y-39377976D01*
X204056547Y-39282738D01*
X204151785Y-39187500D01*
X204294642Y-39139880D01*
X204389880Y-39139880D01*
X204532738Y-39187500D01*
X204580357Y-39235119D01*
X205008928Y-39139880D02*
X205008928Y-39949404D01*
X205056547Y-40044642D01*
X205104166Y-40092261D01*
X205199404Y-40139880D01*
X205389880Y-40139880D01*
X205485119Y-40092261D01*
X205532738Y-40044642D01*
X205580357Y-39949404D01*
X205580357Y-39139880D01*
D10*
X12899107Y-197457142D02*
X13041964Y-197528571D01*
X13327678Y-197528571D01*
X13470535Y-197457142D01*
X13541964Y-197314285D01*
X13541964Y-197242857D01*
X13470535Y-197100000D01*
X13327678Y-197028571D01*
X13113392Y-197028571D01*
X12970535Y-196957142D01*
X12899107Y-196814285D01*
X12899107Y-196742857D01*
X12970535Y-196600000D01*
X13113392Y-196528571D01*
X13327678Y-196528571D01*
X13470535Y-196600000D01*
X14399107Y-197528571D02*
X14256250Y-197457142D01*
X14184821Y-197385714D01*
X14113392Y-197242857D01*
X14113392Y-196814285D01*
X14184821Y-196671428D01*
X14256250Y-196600000D01*
X14399107Y-196528571D01*
X14613392Y-196528571D01*
X14756250Y-196600000D01*
X14827678Y-196671428D01*
X14899107Y-196814285D01*
X14899107Y-197242857D01*
X14827678Y-197385714D01*
X14756250Y-197457142D01*
X14613392Y-197528571D01*
X14399107Y-197528571D01*
X15541964Y-197528571D02*
X15541964Y-196528571D01*
X15541964Y-196671428D02*
X15613392Y-196600000D01*
X15756250Y-196528571D01*
X15970535Y-196528571D01*
X16113392Y-196600000D01*
X16184821Y-196742857D01*
X16184821Y-197528571D01*
X16184821Y-196742857D02*
X16256250Y-196600000D01*
X16399107Y-196528571D01*
X16613392Y-196528571D01*
X16756250Y-196600000D01*
X16827678Y-196742857D01*
X16827678Y-197528571D01*
X18113392Y-197457142D02*
X17970535Y-197528571D01*
X17684821Y-197528571D01*
X17541964Y-197457142D01*
X17470535Y-197314285D01*
X17470535Y-196742857D01*
X17541964Y-196600000D01*
X17684821Y-196528571D01*
X17970535Y-196528571D01*
X18113392Y-196600000D01*
X18184821Y-196742857D01*
X18184821Y-196885714D01*
X17470535Y-197028571D01*
X18827678Y-197528571D02*
X18827678Y-196028571D01*
X19684821Y-197528571D01*
X19684821Y-196028571D01*
X20970535Y-197457142D02*
X20827678Y-197528571D01*
X20541964Y-197528571D01*
X20399107Y-197457142D01*
X20327678Y-197314285D01*
X20327678Y-196742857D01*
X20399107Y-196600000D01*
X20541964Y-196528571D01*
X20827678Y-196528571D01*
X20970535Y-196600000D01*
X21041964Y-196742857D01*
X21041964Y-196885714D01*
X20327678Y-197028571D01*
X21613392Y-197457142D02*
X21756250Y-197528571D01*
X22041964Y-197528571D01*
X22184821Y-197457142D01*
X22256250Y-197314285D01*
X22256250Y-197242857D01*
X22184821Y-197100000D01*
X22041964Y-197028571D01*
X21827678Y-197028571D01*
X21684821Y-196957142D01*
X21613392Y-196814285D01*
X21613392Y-196742857D01*
X21684821Y-196600000D01*
X21827678Y-196528571D01*
X22041964Y-196528571D01*
X22184821Y-196600000D01*
X23541964Y-197528571D02*
X23541964Y-196742857D01*
X23470535Y-196600000D01*
X23327678Y-196528571D01*
X23041964Y-196528571D01*
X22899107Y-196600000D01*
X23541964Y-197457142D02*
X23399107Y-197528571D01*
X23041964Y-197528571D01*
X22899107Y-197457142D01*
X22827678Y-197314285D01*
X22827678Y-197171428D01*
X22899107Y-197028571D01*
X23041964Y-196957142D01*
X23399107Y-196957142D01*
X23541964Y-196885714D01*
D11*
%TO.C,SW1*%
X197104166Y-49248511D02*
X197247023Y-49296130D01*
X197485119Y-49296130D01*
X197580357Y-49248511D01*
X197627976Y-49200892D01*
X197675595Y-49105654D01*
X197675595Y-49010416D01*
X197627976Y-48915178D01*
X197580357Y-48867559D01*
X197485119Y-48819940D01*
X197294642Y-48772321D01*
X197199404Y-48724702D01*
X197151785Y-48677083D01*
X197104166Y-48581845D01*
X197104166Y-48486607D01*
X197151785Y-48391369D01*
X197199404Y-48343750D01*
X197294642Y-48296130D01*
X197532738Y-48296130D01*
X197675595Y-48343750D01*
X198008928Y-48296130D02*
X198247023Y-49296130D01*
X198437500Y-48581845D01*
X198627976Y-49296130D01*
X198866071Y-48296130D01*
X199770833Y-49296130D02*
X199199404Y-49296130D01*
X199485119Y-49296130D02*
X199485119Y-48296130D01*
X199389880Y-48438988D01*
X199294642Y-48534226D01*
X199199404Y-48581845D01*
%TO.C,VOL-R*%
X232966071Y-82522321D02*
X233466071Y-84022321D01*
X233966071Y-82522321D01*
X234751785Y-82522321D02*
X235037500Y-82522321D01*
X235180357Y-82593750D01*
X235323214Y-82736607D01*
X235394642Y-83022321D01*
X235394642Y-83522321D01*
X235323214Y-83808035D01*
X235180357Y-83950892D01*
X235037500Y-84022321D01*
X234751785Y-84022321D01*
X234608928Y-83950892D01*
X234466071Y-83808035D01*
X234394642Y-83522321D01*
X234394642Y-83022321D01*
X234466071Y-82736607D01*
X234608928Y-82593750D01*
X234751785Y-82522321D01*
X236751785Y-84022321D02*
X236037500Y-84022321D01*
X236037500Y-82522321D01*
X237251785Y-83450892D02*
X238394642Y-83450892D01*
X239966071Y-84022321D02*
X239466071Y-83308035D01*
X239108928Y-84022321D02*
X239108928Y-82522321D01*
X239680357Y-82522321D01*
X239823214Y-82593750D01*
X239894642Y-82665178D01*
X239966071Y-82808035D01*
X239966071Y-83022321D01*
X239894642Y-83165178D01*
X239823214Y-83236607D01*
X239680357Y-83308035D01*
X239108928Y-83308035D01*
%TO.C,VOL-L*%
X56896428Y-82522321D02*
X57396428Y-84022321D01*
X57896428Y-82522321D01*
X58682142Y-82522321D02*
X58967857Y-82522321D01*
X59110714Y-82593750D01*
X59253571Y-82736607D01*
X59325000Y-83022321D01*
X59325000Y-83522321D01*
X59253571Y-83808035D01*
X59110714Y-83950892D01*
X58967857Y-84022321D01*
X58682142Y-84022321D01*
X58539285Y-83950892D01*
X58396428Y-83808035D01*
X58325000Y-83522321D01*
X58325000Y-83022321D01*
X58396428Y-82736607D01*
X58539285Y-82593750D01*
X58682142Y-82522321D01*
X60682142Y-84022321D02*
X59967857Y-84022321D01*
X59967857Y-82522321D01*
X61182142Y-83450892D02*
X62325000Y-83450892D01*
X63753571Y-84022321D02*
X63039285Y-84022321D01*
X63039285Y-82522321D01*
D12*
%TO.C,SW1*%
X196987500Y-47963750D02*
X196497500Y-47473750D01*
X195717500Y-44203750D02*
X195717500Y-46283750D01*
X199887500Y-42523750D02*
X196987500Y-42523750D01*
X201157500Y-44203750D02*
X201157500Y-46283750D01*
X199887500Y-47963750D02*
X196987500Y-47963750D01*
X199887500Y-47963750D02*
X200377500Y-47473750D01*
X196987500Y-42523750D02*
X196497500Y-43013750D01*
X199887500Y-42523750D02*
X200377500Y-43013750D01*
%TO.C,VOL-R*%
X239506250Y-74825000D02*
X239506250Y-79725000D01*
X226906250Y-79725000D02*
X229406250Y-79725000D01*
X226906250Y-74925000D02*
X226906250Y-79725000D01*
X239506250Y-79725000D02*
X236706250Y-79725000D01*
X229106250Y-80825000D02*
X229106250Y-80225000D01*
X239506250Y-66325000D02*
X239506250Y-71225000D01*
X226906250Y-71225000D02*
X226906250Y-66325000D01*
X229406250Y-80525000D02*
X229106250Y-80825000D01*
X232706250Y-73025000D02*
X233706250Y-73025000D01*
X226906250Y-66325000D02*
X239506250Y-66325000D01*
X233206250Y-73525000D02*
X233206250Y-72525000D01*
X229106250Y-80225000D02*
X229406250Y-80525000D01*
X236206250Y-73025000D02*
G75*
G03*
X236206250Y-73025000I-3000000J0D01*
G01*
%TO.C,VOL-L*%
X66893750Y-73025000D02*
G75*
G03*
X66893750Y-73025000I-3000000J0D01*
G01*
X60093750Y-80525000D02*
X59793750Y-80825000D01*
X63393750Y-73025000D02*
X64393750Y-73025000D01*
X63893750Y-73525000D02*
X63893750Y-72525000D01*
X70193750Y-66325000D02*
X70193750Y-71225000D01*
X70193750Y-74825000D02*
X70193750Y-79725000D01*
X57593750Y-66325000D02*
X70193750Y-66325000D01*
X57593750Y-71225000D02*
X57593750Y-66325000D01*
X70193750Y-79725000D02*
X67393750Y-79725000D01*
X57593750Y-74925000D02*
X57593750Y-79725000D01*
X59793750Y-80825000D02*
X59793750Y-80225000D01*
X59793750Y-80225000D02*
X60093750Y-80525000D01*
X57593750Y-79725000D02*
X60093750Y-79725000D01*
%TD*%
M02*
