%TF.GenerationSoftware,KiCad,Pcbnew,(6.0.5)*%
%TF.CreationDate,2022-06-07T02:55:43-07:00*%
%TF.ProjectId,sdvx-pcb,73647678-2d70-4636-922e-6b696361645f,rev?*%
%TF.SameCoordinates,Original*%
%TF.FileFunction,Legend,Bot*%
%TF.FilePolarity,Positive*%
%FSLAX46Y46*%
G04 Gerber Fmt 4.6, Leading zero omitted, Abs format (unit mm)*
G04 Created by KiCad (PCBNEW (6.0.5)) date 2022-06-07 02:55:43*
%MOMM*%
%LPD*%
G01*
G04 APERTURE LIST*
%ADD10C,0.150000*%
%ADD11C,0.120000*%
%ADD12C,0.250000*%
G04 APERTURE END LIST*
D10*
%TO.C,C2*%
X157427142Y-63577083D02*
X157474761Y-63529464D01*
X157522380Y-63386607D01*
X157522380Y-63291369D01*
X157474761Y-63148511D01*
X157379523Y-63053273D01*
X157284285Y-63005654D01*
X157093809Y-62958035D01*
X156950952Y-62958035D01*
X156760476Y-63005654D01*
X156665238Y-63053273D01*
X156570000Y-63148511D01*
X156522380Y-63291369D01*
X156522380Y-63386607D01*
X156570000Y-63529464D01*
X156617619Y-63577083D01*
X156617619Y-63958035D02*
X156570000Y-64005654D01*
X156522380Y-64100892D01*
X156522380Y-64338988D01*
X156570000Y-64434226D01*
X156617619Y-64481845D01*
X156712857Y-64529464D01*
X156808095Y-64529464D01*
X156950952Y-64481845D01*
X157522380Y-63910416D01*
X157522380Y-64529464D01*
%TO.C,R5*%
X143264880Y-56983333D02*
X142788690Y-56650000D01*
X143264880Y-56411904D02*
X142264880Y-56411904D01*
X142264880Y-56792857D01*
X142312500Y-56888095D01*
X142360119Y-56935714D01*
X142455357Y-56983333D01*
X142598214Y-56983333D01*
X142693452Y-56935714D01*
X142741071Y-56888095D01*
X142788690Y-56792857D01*
X142788690Y-56411904D01*
X142264880Y-57888095D02*
X142264880Y-57411904D01*
X142741071Y-57364285D01*
X142693452Y-57411904D01*
X142645833Y-57507142D01*
X142645833Y-57745238D01*
X142693452Y-57840476D01*
X142741071Y-57888095D01*
X142836309Y-57935714D01*
X143074404Y-57935714D01*
X143169642Y-57888095D01*
X143217261Y-57840476D01*
X143264880Y-57745238D01*
X143264880Y-57507142D01*
X143217261Y-57411904D01*
X143169642Y-57364285D01*
%TO.C,J1*%
X182827678Y-40021130D02*
X182827678Y-39021130D01*
X182494345Y-39735416D01*
X182161011Y-39021130D01*
X182161011Y-40021130D01*
X181684821Y-40021130D02*
X181684821Y-39021130D01*
X181256250Y-39973511D02*
X181113392Y-40021130D01*
X180875297Y-40021130D01*
X180780059Y-39973511D01*
X180732440Y-39925892D01*
X180684821Y-39830654D01*
X180684821Y-39735416D01*
X180732440Y-39640178D01*
X180780059Y-39592559D01*
X180875297Y-39544940D01*
X181065773Y-39497321D01*
X181161011Y-39449702D01*
X181208630Y-39402083D01*
X181256250Y-39306845D01*
X181256250Y-39211607D01*
X181208630Y-39116369D01*
X181161011Y-39068750D01*
X181065773Y-39021130D01*
X180827678Y-39021130D01*
X180684821Y-39068750D01*
X180065773Y-39021130D02*
X179875297Y-39021130D01*
X179780059Y-39068750D01*
X179684821Y-39163988D01*
X179637202Y-39354464D01*
X179637202Y-39687797D01*
X179684821Y-39878273D01*
X179780059Y-39973511D01*
X179875297Y-40021130D01*
X180065773Y-40021130D01*
X180161011Y-39973511D01*
X180256250Y-39878273D01*
X180303869Y-39687797D01*
X180303869Y-39354464D01*
X180256250Y-39163988D01*
X180161011Y-39068750D01*
X180065773Y-39021130D01*
X174327678Y-42521130D02*
X174327678Y-41521130D01*
X173994345Y-42235416D01*
X173661011Y-41521130D01*
X173661011Y-42521130D01*
X172994345Y-41521130D02*
X172803869Y-41521130D01*
X172708630Y-41568750D01*
X172613392Y-41663988D01*
X172565773Y-41854464D01*
X172565773Y-42187797D01*
X172613392Y-42378273D01*
X172708630Y-42473511D01*
X172803869Y-42521130D01*
X172994345Y-42521130D01*
X173089583Y-42473511D01*
X173184821Y-42378273D01*
X173232440Y-42187797D01*
X173232440Y-41854464D01*
X173184821Y-41663988D01*
X173089583Y-41568750D01*
X172994345Y-41521130D01*
X172184821Y-42473511D02*
X172041964Y-42521130D01*
X171803869Y-42521130D01*
X171708630Y-42473511D01*
X171661011Y-42425892D01*
X171613392Y-42330654D01*
X171613392Y-42235416D01*
X171661011Y-42140178D01*
X171708630Y-42092559D01*
X171803869Y-42044940D01*
X171994345Y-41997321D01*
X172089583Y-41949702D01*
X172137202Y-41902083D01*
X172184821Y-41806845D01*
X172184821Y-41711607D01*
X172137202Y-41616369D01*
X172089583Y-41568750D01*
X171994345Y-41521130D01*
X171756250Y-41521130D01*
X171613392Y-41568750D01*
X171184821Y-42521130D02*
X171184821Y-41521130D01*
X182291964Y-42473511D02*
X182149107Y-42521130D01*
X181911011Y-42521130D01*
X181815773Y-42473511D01*
X181768154Y-42425892D01*
X181720535Y-42330654D01*
X181720535Y-42235416D01*
X181768154Y-42140178D01*
X181815773Y-42092559D01*
X181911011Y-42044940D01*
X182101488Y-41997321D01*
X182196726Y-41949702D01*
X182244345Y-41902083D01*
X182291964Y-41806845D01*
X182291964Y-41711607D01*
X182244345Y-41616369D01*
X182196726Y-41568750D01*
X182101488Y-41521130D01*
X181863392Y-41521130D01*
X181720535Y-41568750D01*
X180720535Y-42425892D02*
X180768154Y-42473511D01*
X180911011Y-42521130D01*
X181006250Y-42521130D01*
X181149107Y-42473511D01*
X181244345Y-42378273D01*
X181291964Y-42283035D01*
X181339583Y-42092559D01*
X181339583Y-41949702D01*
X181291964Y-41759226D01*
X181244345Y-41663988D01*
X181149107Y-41568750D01*
X181006250Y-41521130D01*
X180911011Y-41521130D01*
X180768154Y-41568750D01*
X180720535Y-41616369D01*
X180291964Y-42521130D02*
X180291964Y-41521130D01*
X179720535Y-42521130D02*
X180149107Y-41949702D01*
X179720535Y-41521130D02*
X180291964Y-42092559D01*
X173518154Y-44068750D02*
X173613392Y-44021130D01*
X173756250Y-44021130D01*
X173899107Y-44068750D01*
X173994345Y-44163988D01*
X174041964Y-44259226D01*
X174089583Y-44449702D01*
X174089583Y-44592559D01*
X174041964Y-44783035D01*
X173994345Y-44878273D01*
X173899107Y-44973511D01*
X173756250Y-45021130D01*
X173661011Y-45021130D01*
X173518154Y-44973511D01*
X173470535Y-44925892D01*
X173470535Y-44592559D01*
X173661011Y-44592559D01*
X173041964Y-45021130D02*
X173041964Y-44021130D01*
X172470535Y-45021130D01*
X172470535Y-44021130D01*
X171994345Y-45021130D02*
X171994345Y-44021130D01*
X171756250Y-44021130D01*
X171613392Y-44068750D01*
X171518154Y-44163988D01*
X171470535Y-44259226D01*
X171422916Y-44449702D01*
X171422916Y-44592559D01*
X171470535Y-44783035D01*
X171518154Y-44878273D01*
X171613392Y-44973511D01*
X171756250Y-45021130D01*
X171994345Y-45021130D01*
X174339583Y-39021130D02*
X174006250Y-40021130D01*
X173672916Y-39021130D01*
X172768154Y-39925892D02*
X172815773Y-39973511D01*
X172958630Y-40021130D01*
X173053869Y-40021130D01*
X173196726Y-39973511D01*
X173291964Y-39878273D01*
X173339583Y-39783035D01*
X173387202Y-39592559D01*
X173387202Y-39449702D01*
X173339583Y-39259226D01*
X173291964Y-39163988D01*
X173196726Y-39068750D01*
X173053869Y-39021130D01*
X172958630Y-39021130D01*
X172815773Y-39068750D01*
X172768154Y-39116369D01*
X171768154Y-39925892D02*
X171815773Y-39973511D01*
X171958630Y-40021130D01*
X172053869Y-40021130D01*
X172196726Y-39973511D01*
X172291964Y-39878273D01*
X172339583Y-39783035D01*
X172387202Y-39592559D01*
X172387202Y-39449702D01*
X172339583Y-39259226D01*
X172291964Y-39163988D01*
X172196726Y-39068750D01*
X172053869Y-39021130D01*
X171958630Y-39021130D01*
X171815773Y-39068750D01*
X171768154Y-39116369D01*
X181803869Y-45021130D02*
X182137202Y-44544940D01*
X182375297Y-45021130D02*
X182375297Y-44021130D01*
X181994345Y-44021130D01*
X181899107Y-44068750D01*
X181851488Y-44116369D01*
X181803869Y-44211607D01*
X181803869Y-44354464D01*
X181851488Y-44449702D01*
X181899107Y-44497321D01*
X181994345Y-44544940D01*
X182375297Y-44544940D01*
X181422916Y-44973511D02*
X181280059Y-45021130D01*
X181041964Y-45021130D01*
X180946726Y-44973511D01*
X180899107Y-44925892D01*
X180851488Y-44830654D01*
X180851488Y-44735416D01*
X180899107Y-44640178D01*
X180946726Y-44592559D01*
X181041964Y-44544940D01*
X181232440Y-44497321D01*
X181327678Y-44449702D01*
X181375297Y-44402083D01*
X181422916Y-44306845D01*
X181422916Y-44211607D01*
X181375297Y-44116369D01*
X181327678Y-44068750D01*
X181232440Y-44021130D01*
X180994345Y-44021130D01*
X180851488Y-44068750D01*
X180565773Y-44021130D02*
X179994345Y-44021130D01*
X180280059Y-45021130D02*
X180280059Y-44021130D01*
%TO.C,U2*%
X139639880Y-69088095D02*
X140449404Y-69088095D01*
X140544642Y-69135714D01*
X140592261Y-69183333D01*
X140639880Y-69278571D01*
X140639880Y-69469047D01*
X140592261Y-69564285D01*
X140544642Y-69611904D01*
X140449404Y-69659523D01*
X139639880Y-69659523D01*
X139735119Y-70088095D02*
X139687500Y-70135714D01*
X139639880Y-70230952D01*
X139639880Y-70469047D01*
X139687500Y-70564285D01*
X139735119Y-70611904D01*
X139830357Y-70659523D01*
X139925595Y-70659523D01*
X140068452Y-70611904D01*
X140639880Y-70040476D01*
X140639880Y-70659523D01*
%TO.C,USB1*%
X149375595Y-19174880D02*
X149375595Y-19984404D01*
X149327976Y-20079642D01*
X149280357Y-20127261D01*
X149185119Y-20174880D01*
X148994642Y-20174880D01*
X148899404Y-20127261D01*
X148851785Y-20079642D01*
X148804166Y-19984404D01*
X148804166Y-19174880D01*
X148375595Y-20127261D02*
X148232738Y-20174880D01*
X147994642Y-20174880D01*
X147899404Y-20127261D01*
X147851785Y-20079642D01*
X147804166Y-19984404D01*
X147804166Y-19889166D01*
X147851785Y-19793928D01*
X147899404Y-19746309D01*
X147994642Y-19698690D01*
X148185119Y-19651071D01*
X148280357Y-19603452D01*
X148327976Y-19555833D01*
X148375595Y-19460595D01*
X148375595Y-19365357D01*
X148327976Y-19270119D01*
X148280357Y-19222500D01*
X148185119Y-19174880D01*
X147947023Y-19174880D01*
X147804166Y-19222500D01*
X147042261Y-19651071D02*
X146899404Y-19698690D01*
X146851785Y-19746309D01*
X146804166Y-19841547D01*
X146804166Y-19984404D01*
X146851785Y-20079642D01*
X146899404Y-20127261D01*
X146994642Y-20174880D01*
X147375595Y-20174880D01*
X147375595Y-19174880D01*
X147042261Y-19174880D01*
X146947023Y-19222500D01*
X146899404Y-19270119D01*
X146851785Y-19365357D01*
X146851785Y-19460595D01*
X146899404Y-19555833D01*
X146947023Y-19603452D01*
X147042261Y-19651071D01*
X147375595Y-19651071D01*
X145851785Y-20174880D02*
X146423214Y-20174880D01*
X146137500Y-20174880D02*
X146137500Y-19174880D01*
X146232738Y-19317738D01*
X146327976Y-19412976D01*
X146423214Y-19460595D01*
%TO.C,C3*%
X140570892Y-75339583D02*
X140618511Y-75291964D01*
X140666130Y-75149107D01*
X140666130Y-75053869D01*
X140618511Y-74911011D01*
X140523273Y-74815773D01*
X140428035Y-74768154D01*
X140237559Y-74720535D01*
X140094702Y-74720535D01*
X139904226Y-74768154D01*
X139808988Y-74815773D01*
X139713750Y-74911011D01*
X139666130Y-75053869D01*
X139666130Y-75149107D01*
X139713750Y-75291964D01*
X139761369Y-75339583D01*
X139666130Y-75672916D02*
X139666130Y-76291964D01*
X140047083Y-75958630D01*
X140047083Y-76101488D01*
X140094702Y-76196726D01*
X140142321Y-76244345D01*
X140237559Y-76291964D01*
X140475654Y-76291964D01*
X140570892Y-76244345D01*
X140618511Y-76196726D01*
X140666130Y-76101488D01*
X140666130Y-75815773D01*
X140618511Y-75720535D01*
X140570892Y-75672916D01*
%TO.C,R1*%
X169235416Y-40871130D02*
X169568750Y-40394940D01*
X169806845Y-40871130D02*
X169806845Y-39871130D01*
X169425892Y-39871130D01*
X169330654Y-39918750D01*
X169283035Y-39966369D01*
X169235416Y-40061607D01*
X169235416Y-40204464D01*
X169283035Y-40299702D01*
X169330654Y-40347321D01*
X169425892Y-40394940D01*
X169806845Y-40394940D01*
X168283035Y-40871130D02*
X168854464Y-40871130D01*
X168568750Y-40871130D02*
X168568750Y-39871130D01*
X168663988Y-40013988D01*
X168759226Y-40109226D01*
X168854464Y-40156845D01*
%TO.C,R6*%
X142247916Y-76652380D02*
X142581250Y-76176190D01*
X142819345Y-76652380D02*
X142819345Y-75652380D01*
X142438392Y-75652380D01*
X142343154Y-75700000D01*
X142295535Y-75747619D01*
X142247916Y-75842857D01*
X142247916Y-75985714D01*
X142295535Y-76080952D01*
X142343154Y-76128571D01*
X142438392Y-76176190D01*
X142819345Y-76176190D01*
X141390773Y-75652380D02*
X141581250Y-75652380D01*
X141676488Y-75700000D01*
X141724107Y-75747619D01*
X141819345Y-75890476D01*
X141866964Y-76080952D01*
X141866964Y-76461904D01*
X141819345Y-76557142D01*
X141771726Y-76604761D01*
X141676488Y-76652380D01*
X141486011Y-76652380D01*
X141390773Y-76604761D01*
X141343154Y-76557142D01*
X141295535Y-76461904D01*
X141295535Y-76223809D01*
X141343154Y-76128571D01*
X141390773Y-76080952D01*
X141486011Y-76033333D01*
X141676488Y-76033333D01*
X141771726Y-76080952D01*
X141819345Y-76128571D01*
X141866964Y-76223809D01*
%TO.C,Fe1*%
X124314821Y-26125595D02*
X124314821Y-25792261D01*
X124838630Y-25792261D02*
X123838630Y-25792261D01*
X123838630Y-26268452D01*
X124791011Y-27030357D02*
X124838630Y-26935119D01*
X124838630Y-26744642D01*
X124791011Y-26649404D01*
X124695773Y-26601785D01*
X124314821Y-26601785D01*
X124219583Y-26649404D01*
X124171964Y-26744642D01*
X124171964Y-26935119D01*
X124219583Y-27030357D01*
X124314821Y-27077976D01*
X124410059Y-27077976D01*
X124505297Y-26601785D01*
X124838630Y-28030357D02*
X124838630Y-27458928D01*
X124838630Y-27744642D02*
X123838630Y-27744642D01*
X123981488Y-27649404D01*
X124076726Y-27554166D01*
X124124345Y-27458928D01*
%TO.C,C8*%
X152322916Y-79824642D02*
X152370535Y-79872261D01*
X152513392Y-79919880D01*
X152608630Y-79919880D01*
X152751488Y-79872261D01*
X152846726Y-79777023D01*
X152894345Y-79681785D01*
X152941964Y-79491309D01*
X152941964Y-79348452D01*
X152894345Y-79157976D01*
X152846726Y-79062738D01*
X152751488Y-78967500D01*
X152608630Y-78919880D01*
X152513392Y-78919880D01*
X152370535Y-78967500D01*
X152322916Y-79015119D01*
X151751488Y-79348452D02*
X151846726Y-79300833D01*
X151894345Y-79253214D01*
X151941964Y-79157976D01*
X151941964Y-79110357D01*
X151894345Y-79015119D01*
X151846726Y-78967500D01*
X151751488Y-78919880D01*
X151561011Y-78919880D01*
X151465773Y-78967500D01*
X151418154Y-79015119D01*
X151370535Y-79110357D01*
X151370535Y-79157976D01*
X151418154Y-79253214D01*
X151465773Y-79300833D01*
X151561011Y-79348452D01*
X151751488Y-79348452D01*
X151846726Y-79396071D01*
X151894345Y-79443690D01*
X151941964Y-79538928D01*
X151941964Y-79729404D01*
X151894345Y-79824642D01*
X151846726Y-79872261D01*
X151751488Y-79919880D01*
X151561011Y-79919880D01*
X151465773Y-79872261D01*
X151418154Y-79824642D01*
X151370535Y-79729404D01*
X151370535Y-79538928D01*
X151418154Y-79443690D01*
X151465773Y-79396071D01*
X151561011Y-79348452D01*
%TO.C,U1*%
X148605654Y-26508630D02*
X148605654Y-27318154D01*
X148558035Y-27413392D01*
X148510416Y-27461011D01*
X148415178Y-27508630D01*
X148224702Y-27508630D01*
X148129464Y-27461011D01*
X148081845Y-27413392D01*
X148034226Y-27318154D01*
X148034226Y-26508630D01*
X147034226Y-27508630D02*
X147605654Y-27508630D01*
X147319940Y-27508630D02*
X147319940Y-26508630D01*
X147415178Y-26651488D01*
X147510416Y-26746726D01*
X147605654Y-26794345D01*
%TO.C,C7*%
X150735416Y-59002142D02*
X150783035Y-59049761D01*
X150925892Y-59097380D01*
X151021130Y-59097380D01*
X151163988Y-59049761D01*
X151259226Y-58954523D01*
X151306845Y-58859285D01*
X151354464Y-58668809D01*
X151354464Y-58525952D01*
X151306845Y-58335476D01*
X151259226Y-58240238D01*
X151163988Y-58145000D01*
X151021130Y-58097380D01*
X150925892Y-58097380D01*
X150783035Y-58145000D01*
X150735416Y-58192619D01*
X150402083Y-58097380D02*
X149735416Y-58097380D01*
X150163988Y-59097380D01*
%TO.C,C1*%
X167647916Y-71000892D02*
X167695535Y-71048511D01*
X167838392Y-71096130D01*
X167933630Y-71096130D01*
X168076488Y-71048511D01*
X168171726Y-70953273D01*
X168219345Y-70858035D01*
X168266964Y-70667559D01*
X168266964Y-70524702D01*
X168219345Y-70334226D01*
X168171726Y-70238988D01*
X168076488Y-70143750D01*
X167933630Y-70096130D01*
X167838392Y-70096130D01*
X167695535Y-70143750D01*
X167647916Y-70191369D01*
X166695535Y-71096130D02*
X167266964Y-71096130D01*
X166981250Y-71096130D02*
X166981250Y-70096130D01*
X167076488Y-70238988D01*
X167171726Y-70334226D01*
X167266964Y-70381845D01*
%TO.C,C4*%
X164716666Y-66145892D02*
X164764285Y-66193511D01*
X164907142Y-66241130D01*
X165002380Y-66241130D01*
X165145238Y-66193511D01*
X165240476Y-66098273D01*
X165288095Y-66003035D01*
X165335714Y-65812559D01*
X165335714Y-65669702D01*
X165288095Y-65479226D01*
X165240476Y-65383988D01*
X165145238Y-65288750D01*
X165002380Y-65241130D01*
X164907142Y-65241130D01*
X164764285Y-65288750D01*
X164716666Y-65336369D01*
X163859523Y-65574464D02*
X163859523Y-66241130D01*
X164097619Y-65193511D02*
X164335714Y-65907797D01*
X163716666Y-65907797D01*
%TO.C,Y1*%
X159519940Y-72548809D02*
X159996130Y-72548809D01*
X158996130Y-72215476D02*
X159519940Y-72548809D01*
X158996130Y-72882142D01*
X159996130Y-73739285D02*
X159996130Y-73167857D01*
X159996130Y-73453571D02*
X158996130Y-73453571D01*
X159138988Y-73358333D01*
X159234226Y-73263095D01*
X159281845Y-73167857D01*
%TO.C,C6*%
X136347916Y-66752142D02*
X136395535Y-66799761D01*
X136538392Y-66847380D01*
X136633630Y-66847380D01*
X136776488Y-66799761D01*
X136871726Y-66704523D01*
X136919345Y-66609285D01*
X136966964Y-66418809D01*
X136966964Y-66275952D01*
X136919345Y-66085476D01*
X136871726Y-65990238D01*
X136776488Y-65895000D01*
X136633630Y-65847380D01*
X136538392Y-65847380D01*
X136395535Y-65895000D01*
X136347916Y-65942619D01*
X135490773Y-65847380D02*
X135681250Y-65847380D01*
X135776488Y-65895000D01*
X135824107Y-65942619D01*
X135919345Y-66085476D01*
X135966964Y-66275952D01*
X135966964Y-66656904D01*
X135919345Y-66752142D01*
X135871726Y-66799761D01*
X135776488Y-66847380D01*
X135586011Y-66847380D01*
X135490773Y-66799761D01*
X135443154Y-66752142D01*
X135395535Y-66656904D01*
X135395535Y-66418809D01*
X135443154Y-66323571D01*
X135490773Y-66275952D01*
X135586011Y-66228333D01*
X135776488Y-66228333D01*
X135871726Y-66275952D01*
X135919345Y-66323571D01*
X135966964Y-66418809D01*
%TO.C,R3*%
X146502380Y-21264583D02*
X146026190Y-20931250D01*
X146502380Y-20693154D02*
X145502380Y-20693154D01*
X145502380Y-21074107D01*
X145550000Y-21169345D01*
X145597619Y-21216964D01*
X145692857Y-21264583D01*
X145835714Y-21264583D01*
X145930952Y-21216964D01*
X145978571Y-21169345D01*
X146026190Y-21074107D01*
X146026190Y-20693154D01*
X145502380Y-21597916D02*
X145502380Y-22216964D01*
X145883333Y-21883630D01*
X145883333Y-22026488D01*
X145930952Y-22121726D01*
X145978571Y-22169345D01*
X146073809Y-22216964D01*
X146311904Y-22216964D01*
X146407142Y-22169345D01*
X146454761Y-22121726D01*
X146502380Y-22026488D01*
X146502380Y-21740773D01*
X146454761Y-21645535D01*
X146407142Y-21597916D01*
%TO.C,R2*%
X154154166Y-23533630D02*
X154487500Y-23057440D01*
X154725595Y-23533630D02*
X154725595Y-22533630D01*
X154344642Y-22533630D01*
X154249404Y-22581250D01*
X154201785Y-22628869D01*
X154154166Y-22724107D01*
X154154166Y-22866964D01*
X154201785Y-22962202D01*
X154249404Y-23009821D01*
X154344642Y-23057440D01*
X154725595Y-23057440D01*
X153773214Y-22628869D02*
X153725595Y-22581250D01*
X153630357Y-22533630D01*
X153392261Y-22533630D01*
X153297023Y-22581250D01*
X153249404Y-22628869D01*
X153201785Y-22724107D01*
X153201785Y-22819345D01*
X153249404Y-22962202D01*
X153820833Y-23533630D01*
X153201785Y-23533630D01*
%TO.C,R4*%
X150471130Y-56883333D02*
X149994940Y-56550000D01*
X150471130Y-56311904D02*
X149471130Y-56311904D01*
X149471130Y-56692857D01*
X149518750Y-56788095D01*
X149566369Y-56835714D01*
X149661607Y-56883333D01*
X149804464Y-56883333D01*
X149899702Y-56835714D01*
X149947321Y-56788095D01*
X149994940Y-56692857D01*
X149994940Y-56311904D01*
X149804464Y-57740476D02*
X150471130Y-57740476D01*
X149423511Y-57502380D02*
X150137797Y-57264285D01*
X150137797Y-57883333D01*
D11*
%TO.C,C2*%
X158015000Y-63482498D02*
X158015000Y-64005002D01*
X159485000Y-63482498D02*
X159485000Y-64005002D01*
%TO.C,R5*%
X143727500Y-56922936D02*
X143727500Y-57377064D01*
X145197500Y-56922936D02*
X145197500Y-57377064D01*
D12*
%TO.C,J1*%
X179506250Y-45818750D02*
X179506250Y-43318750D01*
X179506250Y-43318750D02*
X174506250Y-43318750D01*
X174506250Y-45818750D02*
X179506250Y-45818750D01*
X174506250Y-43318750D02*
X174506250Y-45818750D01*
D10*
%TO.C,U2*%
X142462500Y-75025000D02*
X143137500Y-75025000D01*
X142462500Y-64675000D02*
X143037500Y-64675000D01*
X152812500Y-75025000D02*
X152137500Y-75025000D01*
X152812500Y-75025000D02*
X152812500Y-74350000D01*
X142462500Y-75025000D02*
X142462500Y-74350000D01*
X152812500Y-64675000D02*
X152812500Y-65350000D01*
X142462500Y-64675000D02*
X142462500Y-65350000D01*
X152812500Y-64675000D02*
X152137500Y-64675000D01*
X143037500Y-64675000D02*
X143037500Y-63400000D01*
D11*
%TO.C,C3*%
X137377500Y-75667502D02*
X137377500Y-75144998D01*
X138847500Y-75667502D02*
X138847500Y-75144998D01*
%TO.C,R1*%
X169295814Y-42803750D02*
X168841686Y-42803750D01*
X169295814Y-41333750D02*
X168841686Y-41333750D01*
%TO.C,R6*%
X142308314Y-78522500D02*
X141854186Y-78522500D01*
X142308314Y-77052500D02*
X141854186Y-77052500D01*
%TO.C,Fe1*%
X127116250Y-26285436D02*
X127116250Y-27489564D01*
X125296250Y-26285436D02*
X125296250Y-27489564D01*
%TO.C,C8*%
X151894998Y-78522500D02*
X152417502Y-78522500D01*
X151894998Y-77052500D02*
X152417502Y-77052500D01*
D10*
%TO.C,U1*%
X147193750Y-23156250D02*
X147193750Y-26056250D01*
X147193750Y-23156250D02*
X148493750Y-23156250D01*
X148493750Y-23156250D02*
X148493750Y-26056250D01*
X148493750Y-26056250D02*
X147193750Y-26056250D01*
D11*
%TO.C,C7*%
X150830002Y-61060000D02*
X150307498Y-61060000D01*
X150830002Y-59590000D02*
X150307498Y-59590000D01*
%TO.C,C1*%
X164567502Y-69908750D02*
X164044998Y-69908750D01*
X164567502Y-71378750D02*
X164044998Y-71378750D01*
%TO.C,C4*%
X164811252Y-66733750D02*
X164288748Y-66733750D01*
X164811252Y-68203750D02*
X164288748Y-68203750D01*
%TO.C,Y1*%
X162215625Y-71684375D02*
X157715625Y-71684375D01*
X157715625Y-71684375D02*
X157715625Y-66284375D01*
%TO.C,C6*%
X136019998Y-65028750D02*
X136542502Y-65028750D01*
X136019998Y-63558750D02*
X136542502Y-63558750D01*
%TO.C,R3*%
X141720814Y-20696250D02*
X141266686Y-20696250D01*
X141720814Y-22166250D02*
X141266686Y-22166250D01*
%TO.C,R2*%
X153760436Y-20696250D02*
X154214564Y-20696250D01*
X153760436Y-22166250D02*
X154214564Y-22166250D01*
%TO.C,R4*%
X147578750Y-56922936D02*
X147578750Y-57377064D01*
X146108750Y-56922936D02*
X146108750Y-57377064D01*
%TD*%
M02*
