%TF.GenerationSoftware,KiCad,Pcbnew,(6.0.5)*%
%TF.CreationDate,2022-06-07T02:55:43-07:00*%
%TF.ProjectId,sdvx-pcb,73647678-2d70-4636-922e-6b696361645f,rev?*%
%TF.SameCoordinates,Original*%
%TF.FileFunction,Paste,Bot*%
%TF.FilePolarity,Positive*%
%FSLAX46Y46*%
G04 Gerber Fmt 4.6, Leading zero omitted, Abs format (unit mm)*
G04 Created by KiCad (PCBNEW (6.0.5)) date 2022-06-07 02:55:43*
%MOMM*%
%LPD*%
G01*
G04 APERTURE LIST*
G04 Aperture macros list*
%AMRoundRect*
0 Rectangle with rounded corners*
0 $1 Rounding radius*
0 $2 $3 $4 $5 $6 $7 $8 $9 X,Y pos of 4 corners*
0 Add a 4 corners polygon primitive as box body*
4,1,4,$2,$3,$4,$5,$6,$7,$8,$9,$2,$3,0*
0 Add four circle primitives for the rounded corners*
1,1,$1+$1,$2,$3*
1,1,$1+$1,$4,$5*
1,1,$1+$1,$6,$7*
1,1,$1+$1,$8,$9*
0 Add four rect primitives between the rounded corners*
20,1,$1+$1,$2,$3,$4,$5,0*
20,1,$1+$1,$4,$5,$6,$7,0*
20,1,$1+$1,$6,$7,$8,$9,0*
20,1,$1+$1,$8,$9,$2,$3,0*%
G04 Aperture macros list end*
%ADD10R,2.550000X2.500000*%
%ADD11RoundRect,0.250000X-0.475000X0.337500X-0.475000X-0.337500X0.475000X-0.337500X0.475000X0.337500X0*%
%ADD12RoundRect,0.250000X-0.450000X0.350000X-0.450000X-0.350000X0.450000X-0.350000X0.450000X0.350000X0*%
%ADD13R,0.550000X1.500000*%
%ADD14R,1.500000X0.550000*%
%ADD15R,0.600000X2.450000*%
%ADD16R,0.300000X2.450000*%
%ADD17RoundRect,0.250000X0.475000X-0.337500X0.475000X0.337500X-0.475000X0.337500X-0.475000X-0.337500X0*%
%ADD18RoundRect,0.250000X0.350000X0.450000X-0.350000X0.450000X-0.350000X-0.450000X0.350000X-0.450000X0*%
%ADD19RoundRect,0.250001X-0.624999X0.462499X-0.624999X-0.462499X0.624999X-0.462499X0.624999X0.462499X0*%
%ADD20RoundRect,0.250000X-0.337500X-0.475000X0.337500X-0.475000X0.337500X0.475000X-0.337500X0.475000X0*%
%ADD21R,0.700000X1.000000*%
%ADD22R,0.700000X0.600000*%
%ADD23RoundRect,0.250000X0.337500X0.475000X-0.337500X0.475000X-0.337500X-0.475000X0.337500X-0.475000X0*%
%ADD24R,1.800000X2.100000*%
%ADD25RoundRect,0.250000X-0.350000X-0.450000X0.350000X-0.450000X0.350000X0.450000X-0.350000X0.450000X0*%
G04 APERTURE END LIST*
D10*
%TO.C,BT-C1*%
X157856250Y-103028750D03*
X170783250Y-100488750D03*
%TD*%
%TO.C,FX-R1*%
X175477500Y-148272500D03*
X188404500Y-145732500D03*
%TD*%
%TO.C,START1*%
X140552500Y-37147500D03*
X153479500Y-34607500D03*
%TD*%
%TO.C,BT-B1*%
X123090000Y-103028750D03*
X136017000Y-100488750D03*
%TD*%
%TO.C,BT-D1*%
X192940000Y-103028750D03*
X205867000Y-100488750D03*
%TD*%
%TO.C,BT-A1*%
X88323750Y-103028750D03*
X101250750Y-100488750D03*
%TD*%
%TO.C,FX-L1*%
X105627500Y-148272500D03*
X118554500Y-145732500D03*
%TD*%
D11*
%TO.C,C2*%
X158750000Y-62706250D03*
X158750000Y-64781250D03*
%TD*%
D12*
%TO.C,R5*%
X144462500Y-56150000D03*
X144462500Y-58150000D03*
%TD*%
D13*
%TO.C,U2*%
X143637500Y-64150000D03*
X144437500Y-64150000D03*
X145237500Y-64150000D03*
X146037500Y-64150000D03*
X146837500Y-64150000D03*
X147637500Y-64150000D03*
X148437500Y-64150000D03*
X149237500Y-64150000D03*
X150037500Y-64150000D03*
X150837500Y-64150000D03*
X151637500Y-64150000D03*
D14*
X153337500Y-65850000D03*
X153337500Y-66650000D03*
X153337500Y-67450000D03*
X153337500Y-68250000D03*
X153337500Y-69050000D03*
X153337500Y-69850000D03*
X153337500Y-70650000D03*
X153337500Y-71450000D03*
X153337500Y-72250000D03*
X153337500Y-73050000D03*
X153337500Y-73850000D03*
D13*
X151637500Y-75550000D03*
X150837500Y-75550000D03*
X150037500Y-75550000D03*
X149237500Y-75550000D03*
X148437500Y-75550000D03*
X147637500Y-75550000D03*
X146837500Y-75550000D03*
X146037500Y-75550000D03*
X145237500Y-75550000D03*
X144437500Y-75550000D03*
X143637500Y-75550000D03*
D14*
X141937500Y-73850000D03*
X141937500Y-73050000D03*
X141937500Y-72250000D03*
X141937500Y-71450000D03*
X141937500Y-70650000D03*
X141937500Y-69850000D03*
X141937500Y-69050000D03*
X141937500Y-68250000D03*
X141937500Y-67450000D03*
X141937500Y-66650000D03*
X141937500Y-65850000D03*
%TD*%
D15*
%TO.C,USB1*%
X144412500Y-17717500D03*
X145187500Y-17717500D03*
D16*
X145887500Y-17717500D03*
X146387500Y-17717500D03*
X146887500Y-17717500D03*
X147387500Y-17717500D03*
X147887500Y-17717500D03*
X148387500Y-17717500D03*
X148887500Y-17717500D03*
X149387500Y-17717500D03*
D15*
X150087500Y-17717500D03*
X150862500Y-17717500D03*
%TD*%
D17*
%TO.C,C3*%
X138112500Y-76443750D03*
X138112500Y-74368750D03*
%TD*%
D18*
%TO.C,R1*%
X170068750Y-42068750D03*
X168068750Y-42068750D03*
%TD*%
%TO.C,R6*%
X143081250Y-77787500D03*
X141081250Y-77787500D03*
%TD*%
D19*
%TO.C,Fe1*%
X126206250Y-25400000D03*
X126206250Y-28375000D03*
%TD*%
D20*
%TO.C,C8*%
X151118750Y-77787500D03*
X153193750Y-77787500D03*
%TD*%
D21*
%TO.C,U1*%
X148843750Y-23856250D03*
D22*
X148843750Y-25556250D03*
X146843750Y-25556250D03*
X146843750Y-23656250D03*
%TD*%
D23*
%TO.C,C7*%
X151606250Y-60325000D03*
X149531250Y-60325000D03*
%TD*%
%TO.C,C1*%
X165343750Y-70643750D03*
X163268750Y-70643750D03*
%TD*%
%TO.C,C4*%
X165587500Y-67468750D03*
X163512500Y-67468750D03*
%TD*%
D24*
%TO.C,Y1*%
X158815625Y-70434375D03*
X158815625Y-67534375D03*
X161115625Y-67534375D03*
X161115625Y-70434375D03*
%TD*%
D20*
%TO.C,C6*%
X135243750Y-64293750D03*
X137318750Y-64293750D03*
%TD*%
D18*
%TO.C,R3*%
X142493750Y-21431250D03*
X140493750Y-21431250D03*
%TD*%
D25*
%TO.C,R2*%
X152987500Y-21431250D03*
X154987500Y-21431250D03*
%TD*%
D12*
%TO.C,R4*%
X146843750Y-56150000D03*
X146843750Y-58150000D03*
%TD*%
M02*
