%TF.GenerationSoftware,KiCad,Pcbnew,(6.0.5)*%
%TF.CreationDate,2022-06-07T17:53:48-07:00*%
%TF.ProjectId,sdvx-pcb,73647678-2d70-4636-922e-6b696361645f,rev?*%
%TF.SameCoordinates,Original*%
%TF.FileFunction,Legend,Bot*%
%TF.FilePolarity,Positive*%
%FSLAX46Y46*%
G04 Gerber Fmt 4.6, Leading zero omitted, Abs format (unit mm)*
G04 Created by KiCad (PCBNEW (6.0.5)) date 2022-06-07 17:53:48*
%MOMM*%
%LPD*%
G01*
G04 APERTURE LIST*
%ADD10C,0.150000*%
%ADD11C,0.120000*%
%ADD12C,0.250000*%
G04 APERTURE END LIST*
D10*
%TO.C,C5*%
X157427142Y-63577083D02*
X157474761Y-63529464D01*
X157522380Y-63386607D01*
X157522380Y-63291369D01*
X157474761Y-63148511D01*
X157379523Y-63053273D01*
X157284285Y-63005654D01*
X157093809Y-62958035D01*
X156950952Y-62958035D01*
X156760476Y-63005654D01*
X156665238Y-63053273D01*
X156570000Y-63148511D01*
X156522380Y-63291369D01*
X156522380Y-63386607D01*
X156570000Y-63529464D01*
X156617619Y-63577083D01*
X156522380Y-64481845D02*
X156522380Y-64005654D01*
X156998571Y-63958035D01*
X156950952Y-64005654D01*
X156903333Y-64100892D01*
X156903333Y-64338988D01*
X156950952Y-64434226D01*
X156998571Y-64481845D01*
X157093809Y-64529464D01*
X157331904Y-64529464D01*
X157427142Y-64481845D01*
X157474761Y-64434226D01*
X157522380Y-64338988D01*
X157522380Y-64100892D01*
X157474761Y-64005654D01*
X157427142Y-63958035D01*
%TO.C,R9*%
X143264880Y-56983333D02*
X142788690Y-56650000D01*
X143264880Y-56411904D02*
X142264880Y-56411904D01*
X142264880Y-56792857D01*
X142312500Y-56888095D01*
X142360119Y-56935714D01*
X142455357Y-56983333D01*
X142598214Y-56983333D01*
X142693452Y-56935714D01*
X142741071Y-56888095D01*
X142788690Y-56792857D01*
X142788690Y-56411904D01*
X143264880Y-57459523D02*
X143264880Y-57650000D01*
X143217261Y-57745238D01*
X143169642Y-57792857D01*
X143026785Y-57888095D01*
X142836309Y-57935714D01*
X142455357Y-57935714D01*
X142360119Y-57888095D01*
X142312500Y-57840476D01*
X142264880Y-57745238D01*
X142264880Y-57554761D01*
X142312500Y-57459523D01*
X142360119Y-57411904D01*
X142455357Y-57364285D01*
X142693452Y-57364285D01*
X142788690Y-57411904D01*
X142836309Y-57459523D01*
X142883928Y-57554761D01*
X142883928Y-57745238D01*
X142836309Y-57840476D01*
X142788690Y-57888095D01*
X142693452Y-57935714D01*
%TO.C,J1*%
X182827678Y-40021130D02*
X182827678Y-39021130D01*
X182494345Y-39735416D01*
X182161011Y-39021130D01*
X182161011Y-40021130D01*
X181684821Y-40021130D02*
X181684821Y-39021130D01*
X181256250Y-39973511D02*
X181113392Y-40021130D01*
X180875297Y-40021130D01*
X180780059Y-39973511D01*
X180732440Y-39925892D01*
X180684821Y-39830654D01*
X180684821Y-39735416D01*
X180732440Y-39640178D01*
X180780059Y-39592559D01*
X180875297Y-39544940D01*
X181065773Y-39497321D01*
X181161011Y-39449702D01*
X181208630Y-39402083D01*
X181256250Y-39306845D01*
X181256250Y-39211607D01*
X181208630Y-39116369D01*
X181161011Y-39068750D01*
X181065773Y-39021130D01*
X180827678Y-39021130D01*
X180684821Y-39068750D01*
X180065773Y-39021130D02*
X179875297Y-39021130D01*
X179780059Y-39068750D01*
X179684821Y-39163988D01*
X179637202Y-39354464D01*
X179637202Y-39687797D01*
X179684821Y-39878273D01*
X179780059Y-39973511D01*
X179875297Y-40021130D01*
X180065773Y-40021130D01*
X180161011Y-39973511D01*
X180256250Y-39878273D01*
X180303869Y-39687797D01*
X180303869Y-39354464D01*
X180256250Y-39163988D01*
X180161011Y-39068750D01*
X180065773Y-39021130D01*
X174327678Y-42521130D02*
X174327678Y-41521130D01*
X173994345Y-42235416D01*
X173661011Y-41521130D01*
X173661011Y-42521130D01*
X172994345Y-41521130D02*
X172803869Y-41521130D01*
X172708630Y-41568750D01*
X172613392Y-41663988D01*
X172565773Y-41854464D01*
X172565773Y-42187797D01*
X172613392Y-42378273D01*
X172708630Y-42473511D01*
X172803869Y-42521130D01*
X172994345Y-42521130D01*
X173089583Y-42473511D01*
X173184821Y-42378273D01*
X173232440Y-42187797D01*
X173232440Y-41854464D01*
X173184821Y-41663988D01*
X173089583Y-41568750D01*
X172994345Y-41521130D01*
X172184821Y-42473511D02*
X172041964Y-42521130D01*
X171803869Y-42521130D01*
X171708630Y-42473511D01*
X171661011Y-42425892D01*
X171613392Y-42330654D01*
X171613392Y-42235416D01*
X171661011Y-42140178D01*
X171708630Y-42092559D01*
X171803869Y-42044940D01*
X171994345Y-41997321D01*
X172089583Y-41949702D01*
X172137202Y-41902083D01*
X172184821Y-41806845D01*
X172184821Y-41711607D01*
X172137202Y-41616369D01*
X172089583Y-41568750D01*
X171994345Y-41521130D01*
X171756250Y-41521130D01*
X171613392Y-41568750D01*
X171184821Y-42521130D02*
X171184821Y-41521130D01*
X182291964Y-42473511D02*
X182149107Y-42521130D01*
X181911011Y-42521130D01*
X181815773Y-42473511D01*
X181768154Y-42425892D01*
X181720535Y-42330654D01*
X181720535Y-42235416D01*
X181768154Y-42140178D01*
X181815773Y-42092559D01*
X181911011Y-42044940D01*
X182101488Y-41997321D01*
X182196726Y-41949702D01*
X182244345Y-41902083D01*
X182291964Y-41806845D01*
X182291964Y-41711607D01*
X182244345Y-41616369D01*
X182196726Y-41568750D01*
X182101488Y-41521130D01*
X181863392Y-41521130D01*
X181720535Y-41568750D01*
X180720535Y-42425892D02*
X180768154Y-42473511D01*
X180911011Y-42521130D01*
X181006250Y-42521130D01*
X181149107Y-42473511D01*
X181244345Y-42378273D01*
X181291964Y-42283035D01*
X181339583Y-42092559D01*
X181339583Y-41949702D01*
X181291964Y-41759226D01*
X181244345Y-41663988D01*
X181149107Y-41568750D01*
X181006250Y-41521130D01*
X180911011Y-41521130D01*
X180768154Y-41568750D01*
X180720535Y-41616369D01*
X180291964Y-42521130D02*
X180291964Y-41521130D01*
X179720535Y-42521130D02*
X180149107Y-41949702D01*
X179720535Y-41521130D02*
X180291964Y-42092559D01*
X173518154Y-44068750D02*
X173613392Y-44021130D01*
X173756250Y-44021130D01*
X173899107Y-44068750D01*
X173994345Y-44163988D01*
X174041964Y-44259226D01*
X174089583Y-44449702D01*
X174089583Y-44592559D01*
X174041964Y-44783035D01*
X173994345Y-44878273D01*
X173899107Y-44973511D01*
X173756250Y-45021130D01*
X173661011Y-45021130D01*
X173518154Y-44973511D01*
X173470535Y-44925892D01*
X173470535Y-44592559D01*
X173661011Y-44592559D01*
X173041964Y-45021130D02*
X173041964Y-44021130D01*
X172470535Y-45021130D01*
X172470535Y-44021130D01*
X171994345Y-45021130D02*
X171994345Y-44021130D01*
X171756250Y-44021130D01*
X171613392Y-44068750D01*
X171518154Y-44163988D01*
X171470535Y-44259226D01*
X171422916Y-44449702D01*
X171422916Y-44592559D01*
X171470535Y-44783035D01*
X171518154Y-44878273D01*
X171613392Y-44973511D01*
X171756250Y-45021130D01*
X171994345Y-45021130D01*
X174339583Y-39021130D02*
X174006250Y-40021130D01*
X173672916Y-39021130D01*
X172768154Y-39925892D02*
X172815773Y-39973511D01*
X172958630Y-40021130D01*
X173053869Y-40021130D01*
X173196726Y-39973511D01*
X173291964Y-39878273D01*
X173339583Y-39783035D01*
X173387202Y-39592559D01*
X173387202Y-39449702D01*
X173339583Y-39259226D01*
X173291964Y-39163988D01*
X173196726Y-39068750D01*
X173053869Y-39021130D01*
X172958630Y-39021130D01*
X172815773Y-39068750D01*
X172768154Y-39116369D01*
X171768154Y-39925892D02*
X171815773Y-39973511D01*
X171958630Y-40021130D01*
X172053869Y-40021130D01*
X172196726Y-39973511D01*
X172291964Y-39878273D01*
X172339583Y-39783035D01*
X172387202Y-39592559D01*
X172387202Y-39449702D01*
X172339583Y-39259226D01*
X172291964Y-39163988D01*
X172196726Y-39068750D01*
X172053869Y-39021130D01*
X171958630Y-39021130D01*
X171815773Y-39068750D01*
X171768154Y-39116369D01*
X181803869Y-45021130D02*
X182137202Y-44544940D01*
X182375297Y-45021130D02*
X182375297Y-44021130D01*
X181994345Y-44021130D01*
X181899107Y-44068750D01*
X181851488Y-44116369D01*
X181803869Y-44211607D01*
X181803869Y-44354464D01*
X181851488Y-44449702D01*
X181899107Y-44497321D01*
X181994345Y-44544940D01*
X182375297Y-44544940D01*
X181422916Y-44973511D02*
X181280059Y-45021130D01*
X181041964Y-45021130D01*
X180946726Y-44973511D01*
X180899107Y-44925892D01*
X180851488Y-44830654D01*
X180851488Y-44735416D01*
X180899107Y-44640178D01*
X180946726Y-44592559D01*
X181041964Y-44544940D01*
X181232440Y-44497321D01*
X181327678Y-44449702D01*
X181375297Y-44402083D01*
X181422916Y-44306845D01*
X181422916Y-44211607D01*
X181375297Y-44116369D01*
X181327678Y-44068750D01*
X181232440Y-44021130D01*
X180994345Y-44021130D01*
X180851488Y-44068750D01*
X180565773Y-44021130D02*
X179994345Y-44021130D01*
X180280059Y-45021130D02*
X180280059Y-44021130D01*
%TO.C,U2*%
X139639880Y-69088095D02*
X140449404Y-69088095D01*
X140544642Y-69135714D01*
X140592261Y-69183333D01*
X140639880Y-69278571D01*
X140639880Y-69469047D01*
X140592261Y-69564285D01*
X140544642Y-69611904D01*
X140449404Y-69659523D01*
X139639880Y-69659523D01*
X139735119Y-70088095D02*
X139687500Y-70135714D01*
X139639880Y-70230952D01*
X139639880Y-70469047D01*
X139687500Y-70564285D01*
X139735119Y-70611904D01*
X139830357Y-70659523D01*
X139925595Y-70659523D01*
X140068452Y-70611904D01*
X140639880Y-70040476D01*
X140639880Y-70659523D01*
%TO.C,C2*%
X208129166Y-67733392D02*
X208176785Y-67781011D01*
X208319642Y-67828630D01*
X208414880Y-67828630D01*
X208557738Y-67781011D01*
X208652976Y-67685773D01*
X208700595Y-67590535D01*
X208748214Y-67400059D01*
X208748214Y-67257202D01*
X208700595Y-67066726D01*
X208652976Y-66971488D01*
X208557738Y-66876250D01*
X208414880Y-66828630D01*
X208319642Y-66828630D01*
X208176785Y-66876250D01*
X208129166Y-66923869D01*
X207748214Y-66923869D02*
X207700595Y-66876250D01*
X207605357Y-66828630D01*
X207367261Y-66828630D01*
X207272023Y-66876250D01*
X207224404Y-66923869D01*
X207176785Y-67019107D01*
X207176785Y-67114345D01*
X207224404Y-67257202D01*
X207795833Y-67828630D01*
X207176785Y-67828630D01*
%TO.C,USB1*%
X149375595Y-19174880D02*
X149375595Y-19984404D01*
X149327976Y-20079642D01*
X149280357Y-20127261D01*
X149185119Y-20174880D01*
X148994642Y-20174880D01*
X148899404Y-20127261D01*
X148851785Y-20079642D01*
X148804166Y-19984404D01*
X148804166Y-19174880D01*
X148375595Y-20127261D02*
X148232738Y-20174880D01*
X147994642Y-20174880D01*
X147899404Y-20127261D01*
X147851785Y-20079642D01*
X147804166Y-19984404D01*
X147804166Y-19889166D01*
X147851785Y-19793928D01*
X147899404Y-19746309D01*
X147994642Y-19698690D01*
X148185119Y-19651071D01*
X148280357Y-19603452D01*
X148327976Y-19555833D01*
X148375595Y-19460595D01*
X148375595Y-19365357D01*
X148327976Y-19270119D01*
X148280357Y-19222500D01*
X148185119Y-19174880D01*
X147947023Y-19174880D01*
X147804166Y-19222500D01*
X147042261Y-19651071D02*
X146899404Y-19698690D01*
X146851785Y-19746309D01*
X146804166Y-19841547D01*
X146804166Y-19984404D01*
X146851785Y-20079642D01*
X146899404Y-20127261D01*
X146994642Y-20174880D01*
X147375595Y-20174880D01*
X147375595Y-19174880D01*
X147042261Y-19174880D01*
X146947023Y-19222500D01*
X146899404Y-19270119D01*
X146851785Y-19365357D01*
X146851785Y-19460595D01*
X146899404Y-19555833D01*
X146947023Y-19603452D01*
X147042261Y-19651071D01*
X147375595Y-19651071D01*
X145851785Y-20174880D02*
X146423214Y-20174880D01*
X146137500Y-20174880D02*
X146137500Y-19174880D01*
X146232738Y-19317738D01*
X146327976Y-19412976D01*
X146423214Y-19460595D01*
%TO.C,C6*%
X140570892Y-75339583D02*
X140618511Y-75291964D01*
X140666130Y-75149107D01*
X140666130Y-75053869D01*
X140618511Y-74911011D01*
X140523273Y-74815773D01*
X140428035Y-74768154D01*
X140237559Y-74720535D01*
X140094702Y-74720535D01*
X139904226Y-74768154D01*
X139808988Y-74815773D01*
X139713750Y-74911011D01*
X139666130Y-75053869D01*
X139666130Y-75149107D01*
X139713750Y-75291964D01*
X139761369Y-75339583D01*
X139666130Y-76196726D02*
X139666130Y-76006250D01*
X139713750Y-75911011D01*
X139761369Y-75863392D01*
X139904226Y-75768154D01*
X140094702Y-75720535D01*
X140475654Y-75720535D01*
X140570892Y-75768154D01*
X140618511Y-75815773D01*
X140666130Y-75911011D01*
X140666130Y-76101488D01*
X140618511Y-76196726D01*
X140570892Y-76244345D01*
X140475654Y-76291964D01*
X140237559Y-76291964D01*
X140142321Y-76244345D01*
X140094702Y-76196726D01*
X140047083Y-76101488D01*
X140047083Y-75911011D01*
X140094702Y-75815773D01*
X140142321Y-75768154D01*
X140237559Y-75720535D01*
%TO.C,C1*%
X87479166Y-68712142D02*
X87526785Y-68759761D01*
X87669642Y-68807380D01*
X87764880Y-68807380D01*
X87907738Y-68759761D01*
X88002976Y-68664523D01*
X88050595Y-68569285D01*
X88098214Y-68378809D01*
X88098214Y-68235952D01*
X88050595Y-68045476D01*
X88002976Y-67950238D01*
X87907738Y-67855000D01*
X87764880Y-67807380D01*
X87669642Y-67807380D01*
X87526785Y-67855000D01*
X87479166Y-67902619D01*
X86526785Y-68807380D02*
X87098214Y-68807380D01*
X86812500Y-68807380D02*
X86812500Y-67807380D01*
X86907738Y-67950238D01*
X87002976Y-68045476D01*
X87098214Y-68093095D01*
%TO.C,R3*%
X169235416Y-40871130D02*
X169568750Y-40394940D01*
X169806845Y-40871130D02*
X169806845Y-39871130D01*
X169425892Y-39871130D01*
X169330654Y-39918750D01*
X169283035Y-39966369D01*
X169235416Y-40061607D01*
X169235416Y-40204464D01*
X169283035Y-40299702D01*
X169330654Y-40347321D01*
X169425892Y-40394940D01*
X169806845Y-40394940D01*
X168902083Y-39871130D02*
X168283035Y-39871130D01*
X168616369Y-40252083D01*
X168473511Y-40252083D01*
X168378273Y-40299702D01*
X168330654Y-40347321D01*
X168283035Y-40442559D01*
X168283035Y-40680654D01*
X168330654Y-40775892D01*
X168378273Y-40823511D01*
X168473511Y-40871130D01*
X168759226Y-40871130D01*
X168854464Y-40823511D01*
X168902083Y-40775892D01*
%TO.C,R2*%
X77747916Y-71952380D02*
X78081250Y-71476190D01*
X78319345Y-71952380D02*
X78319345Y-70952380D01*
X77938392Y-70952380D01*
X77843154Y-71000000D01*
X77795535Y-71047619D01*
X77747916Y-71142857D01*
X77747916Y-71285714D01*
X77795535Y-71380952D01*
X77843154Y-71428571D01*
X77938392Y-71476190D01*
X78319345Y-71476190D01*
X77366964Y-71047619D02*
X77319345Y-71000000D01*
X77224107Y-70952380D01*
X76986011Y-70952380D01*
X76890773Y-71000000D01*
X76843154Y-71047619D01*
X76795535Y-71142857D01*
X76795535Y-71238095D01*
X76843154Y-71380952D01*
X77414583Y-71952380D01*
X76795535Y-71952380D01*
%TO.C,R10*%
X142724107Y-76652380D02*
X143057440Y-76176190D01*
X143295535Y-76652380D02*
X143295535Y-75652380D01*
X142914583Y-75652380D01*
X142819345Y-75700000D01*
X142771726Y-75747619D01*
X142724107Y-75842857D01*
X142724107Y-75985714D01*
X142771726Y-76080952D01*
X142819345Y-76128571D01*
X142914583Y-76176190D01*
X143295535Y-76176190D01*
X141771726Y-76652380D02*
X142343154Y-76652380D01*
X142057440Y-76652380D02*
X142057440Y-75652380D01*
X142152678Y-75795238D01*
X142247916Y-75890476D01*
X142343154Y-75938095D01*
X141152678Y-75652380D02*
X141057440Y-75652380D01*
X140962202Y-75700000D01*
X140914583Y-75747619D01*
X140866964Y-75842857D01*
X140819345Y-76033333D01*
X140819345Y-76271428D01*
X140866964Y-76461904D01*
X140914583Y-76557142D01*
X140962202Y-76604761D01*
X141057440Y-76652380D01*
X141152678Y-76652380D01*
X141247916Y-76604761D01*
X141295535Y-76557142D01*
X141343154Y-76461904D01*
X141390773Y-76271428D01*
X141390773Y-76033333D01*
X141343154Y-75842857D01*
X141295535Y-75747619D01*
X141247916Y-75700000D01*
X141152678Y-75652380D01*
%TO.C,Fe1*%
X124314821Y-26125595D02*
X124314821Y-25792261D01*
X124838630Y-25792261D02*
X123838630Y-25792261D01*
X123838630Y-26268452D01*
X124791011Y-27030357D02*
X124838630Y-26935119D01*
X124838630Y-26744642D01*
X124791011Y-26649404D01*
X124695773Y-26601785D01*
X124314821Y-26601785D01*
X124219583Y-26649404D01*
X124171964Y-26744642D01*
X124171964Y-26935119D01*
X124219583Y-27030357D01*
X124314821Y-27077976D01*
X124410059Y-27077976D01*
X124505297Y-26601785D01*
X124838630Y-28030357D02*
X124838630Y-27458928D01*
X124838630Y-27744642D02*
X123838630Y-27744642D01*
X123981488Y-27649404D01*
X124076726Y-27554166D01*
X124124345Y-27458928D01*
%TO.C,C4*%
X152322916Y-79824642D02*
X152370535Y-79872261D01*
X152513392Y-79919880D01*
X152608630Y-79919880D01*
X152751488Y-79872261D01*
X152846726Y-79777023D01*
X152894345Y-79681785D01*
X152941964Y-79491309D01*
X152941964Y-79348452D01*
X152894345Y-79157976D01*
X152846726Y-79062738D01*
X152751488Y-78967500D01*
X152608630Y-78919880D01*
X152513392Y-78919880D01*
X152370535Y-78967500D01*
X152322916Y-79015119D01*
X151465773Y-79253214D02*
X151465773Y-79919880D01*
X151703869Y-78872261D02*
X151941964Y-79586547D01*
X151322916Y-79586547D01*
%TO.C,U1*%
X148605654Y-26508630D02*
X148605654Y-27318154D01*
X148558035Y-27413392D01*
X148510416Y-27461011D01*
X148415178Y-27508630D01*
X148224702Y-27508630D01*
X148129464Y-27461011D01*
X148081845Y-27413392D01*
X148034226Y-27318154D01*
X148034226Y-26508630D01*
X147034226Y-27508630D02*
X147605654Y-27508630D01*
X147319940Y-27508630D02*
X147319940Y-26508630D01*
X147415178Y-26651488D01*
X147510416Y-26746726D01*
X147605654Y-26794345D01*
%TO.C,C9*%
X150735416Y-59002142D02*
X150783035Y-59049761D01*
X150925892Y-59097380D01*
X151021130Y-59097380D01*
X151163988Y-59049761D01*
X151259226Y-58954523D01*
X151306845Y-58859285D01*
X151354464Y-58668809D01*
X151354464Y-58525952D01*
X151306845Y-58335476D01*
X151259226Y-58240238D01*
X151163988Y-58145000D01*
X151021130Y-58097380D01*
X150925892Y-58097380D01*
X150783035Y-58145000D01*
X150735416Y-58192619D01*
X150259226Y-59097380D02*
X150068750Y-59097380D01*
X149973511Y-59049761D01*
X149925892Y-59002142D01*
X149830654Y-58859285D01*
X149783035Y-58668809D01*
X149783035Y-58287857D01*
X149830654Y-58192619D01*
X149878273Y-58145000D01*
X149973511Y-58097380D01*
X150163988Y-58097380D01*
X150259226Y-58145000D01*
X150306845Y-58192619D01*
X150354464Y-58287857D01*
X150354464Y-58525952D01*
X150306845Y-58621190D01*
X150259226Y-58668809D01*
X150163988Y-58716428D01*
X149973511Y-58716428D01*
X149878273Y-58668809D01*
X149830654Y-58621190D01*
X149783035Y-58525952D01*
%TO.C,C3*%
X167647916Y-71000892D02*
X167695535Y-71048511D01*
X167838392Y-71096130D01*
X167933630Y-71096130D01*
X168076488Y-71048511D01*
X168171726Y-70953273D01*
X168219345Y-70858035D01*
X168266964Y-70667559D01*
X168266964Y-70524702D01*
X168219345Y-70334226D01*
X168171726Y-70238988D01*
X168076488Y-70143750D01*
X167933630Y-70096130D01*
X167838392Y-70096130D01*
X167695535Y-70143750D01*
X167647916Y-70191369D01*
X167314583Y-70096130D02*
X166695535Y-70096130D01*
X167028869Y-70477083D01*
X166886011Y-70477083D01*
X166790773Y-70524702D01*
X166743154Y-70572321D01*
X166695535Y-70667559D01*
X166695535Y-70905654D01*
X166743154Y-71000892D01*
X166790773Y-71048511D01*
X166886011Y-71096130D01*
X167171726Y-71096130D01*
X167266964Y-71048511D01*
X167314583Y-71000892D01*
%TO.C,C7*%
X164716666Y-66145892D02*
X164764285Y-66193511D01*
X164907142Y-66241130D01*
X165002380Y-66241130D01*
X165145238Y-66193511D01*
X165240476Y-66098273D01*
X165288095Y-66003035D01*
X165335714Y-65812559D01*
X165335714Y-65669702D01*
X165288095Y-65479226D01*
X165240476Y-65383988D01*
X165145238Y-65288750D01*
X165002380Y-65241130D01*
X164907142Y-65241130D01*
X164764285Y-65288750D01*
X164716666Y-65336369D01*
X164383333Y-65241130D02*
X163716666Y-65241130D01*
X164145238Y-66241130D01*
%TO.C,Y1*%
X159519940Y-72548809D02*
X159996130Y-72548809D01*
X158996130Y-72215476D02*
X159519940Y-72548809D01*
X158996130Y-72882142D01*
X159996130Y-73739285D02*
X159996130Y-73167857D01*
X159996130Y-73453571D02*
X158996130Y-73453571D01*
X159138988Y-73358333D01*
X159234226Y-73263095D01*
X159281845Y-73167857D01*
%TO.C,C8*%
X136347916Y-66752142D02*
X136395535Y-66799761D01*
X136538392Y-66847380D01*
X136633630Y-66847380D01*
X136776488Y-66799761D01*
X136871726Y-66704523D01*
X136919345Y-66609285D01*
X136966964Y-66418809D01*
X136966964Y-66275952D01*
X136919345Y-66085476D01*
X136871726Y-65990238D01*
X136776488Y-65895000D01*
X136633630Y-65847380D01*
X136538392Y-65847380D01*
X136395535Y-65895000D01*
X136347916Y-65942619D01*
X135776488Y-66275952D02*
X135871726Y-66228333D01*
X135919345Y-66180714D01*
X135966964Y-66085476D01*
X135966964Y-66037857D01*
X135919345Y-65942619D01*
X135871726Y-65895000D01*
X135776488Y-65847380D01*
X135586011Y-65847380D01*
X135490773Y-65895000D01*
X135443154Y-65942619D01*
X135395535Y-66037857D01*
X135395535Y-66085476D01*
X135443154Y-66180714D01*
X135490773Y-66228333D01*
X135586011Y-66275952D01*
X135776488Y-66275952D01*
X135871726Y-66323571D01*
X135919345Y-66371190D01*
X135966964Y-66466428D01*
X135966964Y-66656904D01*
X135919345Y-66752142D01*
X135871726Y-66799761D01*
X135776488Y-66847380D01*
X135586011Y-66847380D01*
X135490773Y-66799761D01*
X135443154Y-66752142D01*
X135395535Y-66656904D01*
X135395535Y-66466428D01*
X135443154Y-66371190D01*
X135490773Y-66323571D01*
X135586011Y-66275952D01*
%TO.C,R7*%
X146502380Y-21264583D02*
X146026190Y-20931250D01*
X146502380Y-20693154D02*
X145502380Y-20693154D01*
X145502380Y-21074107D01*
X145550000Y-21169345D01*
X145597619Y-21216964D01*
X145692857Y-21264583D01*
X145835714Y-21264583D01*
X145930952Y-21216964D01*
X145978571Y-21169345D01*
X146026190Y-21074107D01*
X146026190Y-20693154D01*
X145502380Y-21597916D02*
X145502380Y-22264583D01*
X146502380Y-21836011D01*
%TO.C,R1*%
X77747916Y-76489880D02*
X78081250Y-76013690D01*
X78319345Y-76489880D02*
X78319345Y-75489880D01*
X77938392Y-75489880D01*
X77843154Y-75537500D01*
X77795535Y-75585119D01*
X77747916Y-75680357D01*
X77747916Y-75823214D01*
X77795535Y-75918452D01*
X77843154Y-75966071D01*
X77938392Y-76013690D01*
X78319345Y-76013690D01*
X76795535Y-76489880D02*
X77366964Y-76489880D01*
X77081250Y-76489880D02*
X77081250Y-75489880D01*
X77176488Y-75632738D01*
X77271726Y-75727976D01*
X77366964Y-75775595D01*
%TO.C,R4*%
X217447916Y-77446130D02*
X217781250Y-76969940D01*
X218019345Y-77446130D02*
X218019345Y-76446130D01*
X217638392Y-76446130D01*
X217543154Y-76493750D01*
X217495535Y-76541369D01*
X217447916Y-76636607D01*
X217447916Y-76779464D01*
X217495535Y-76874702D01*
X217543154Y-76922321D01*
X217638392Y-76969940D01*
X218019345Y-76969940D01*
X216590773Y-76779464D02*
X216590773Y-77446130D01*
X216828869Y-76398511D02*
X217066964Y-77112797D01*
X216447916Y-77112797D01*
%TO.C,R6*%
X154154166Y-23533630D02*
X154487500Y-23057440D01*
X154725595Y-23533630D02*
X154725595Y-22533630D01*
X154344642Y-22533630D01*
X154249404Y-22581250D01*
X154201785Y-22628869D01*
X154154166Y-22724107D01*
X154154166Y-22866964D01*
X154201785Y-22962202D01*
X154249404Y-23009821D01*
X154344642Y-23057440D01*
X154725595Y-23057440D01*
X153297023Y-22533630D02*
X153487500Y-22533630D01*
X153582738Y-22581250D01*
X153630357Y-22628869D01*
X153725595Y-22771726D01*
X153773214Y-22962202D01*
X153773214Y-23343154D01*
X153725595Y-23438392D01*
X153677976Y-23486011D01*
X153582738Y-23533630D01*
X153392261Y-23533630D01*
X153297023Y-23486011D01*
X153249404Y-23438392D01*
X153201785Y-23343154D01*
X153201785Y-23105059D01*
X153249404Y-23009821D01*
X153297023Y-22962202D01*
X153392261Y-22914583D01*
X153582738Y-22914583D01*
X153677976Y-22962202D01*
X153725595Y-23009821D01*
X153773214Y-23105059D01*
%TO.C,R8*%
X150471130Y-56883333D02*
X149994940Y-56550000D01*
X150471130Y-56311904D02*
X149471130Y-56311904D01*
X149471130Y-56692857D01*
X149518750Y-56788095D01*
X149566369Y-56835714D01*
X149661607Y-56883333D01*
X149804464Y-56883333D01*
X149899702Y-56835714D01*
X149947321Y-56788095D01*
X149994940Y-56692857D01*
X149994940Y-56311904D01*
X149899702Y-57454761D02*
X149852083Y-57359523D01*
X149804464Y-57311904D01*
X149709226Y-57264285D01*
X149661607Y-57264285D01*
X149566369Y-57311904D01*
X149518750Y-57359523D01*
X149471130Y-57454761D01*
X149471130Y-57645238D01*
X149518750Y-57740476D01*
X149566369Y-57788095D01*
X149661607Y-57835714D01*
X149709226Y-57835714D01*
X149804464Y-57788095D01*
X149852083Y-57740476D01*
X149899702Y-57645238D01*
X149899702Y-57454761D01*
X149947321Y-57359523D01*
X149994940Y-57311904D01*
X150090178Y-57264285D01*
X150280654Y-57264285D01*
X150375892Y-57311904D01*
X150423511Y-57359523D01*
X150471130Y-57454761D01*
X150471130Y-57645238D01*
X150423511Y-57740476D01*
X150375892Y-57788095D01*
X150280654Y-57835714D01*
X150090178Y-57835714D01*
X149994940Y-57788095D01*
X149947321Y-57740476D01*
X149899702Y-57645238D01*
%TO.C,R5*%
X217447916Y-69446130D02*
X217781250Y-68969940D01*
X218019345Y-69446130D02*
X218019345Y-68446130D01*
X217638392Y-68446130D01*
X217543154Y-68493750D01*
X217495535Y-68541369D01*
X217447916Y-68636607D01*
X217447916Y-68779464D01*
X217495535Y-68874702D01*
X217543154Y-68922321D01*
X217638392Y-68969940D01*
X218019345Y-68969940D01*
X216543154Y-68446130D02*
X217019345Y-68446130D01*
X217066964Y-68922321D01*
X217019345Y-68874702D01*
X216924107Y-68827083D01*
X216686011Y-68827083D01*
X216590773Y-68874702D01*
X216543154Y-68922321D01*
X216495535Y-69017559D01*
X216495535Y-69255654D01*
X216543154Y-69350892D01*
X216590773Y-69398511D01*
X216686011Y-69446130D01*
X216924107Y-69446130D01*
X217019345Y-69398511D01*
X217066964Y-69350892D01*
D11*
%TO.C,C5*%
X158015000Y-63482498D02*
X158015000Y-64005002D01*
X159485000Y-63482498D02*
X159485000Y-64005002D01*
%TO.C,R9*%
X143727500Y-56922936D02*
X143727500Y-57377064D01*
X145197500Y-56922936D02*
X145197500Y-57377064D01*
D12*
%TO.C,J1*%
X179506250Y-45818750D02*
X179506250Y-43318750D01*
X179506250Y-43318750D02*
X174506250Y-43318750D01*
X174506250Y-45818750D02*
X179506250Y-45818750D01*
X174506250Y-43318750D02*
X174506250Y-45818750D01*
D10*
%TO.C,U2*%
X142462500Y-75025000D02*
X143137500Y-75025000D01*
X142462500Y-64675000D02*
X143037500Y-64675000D01*
X152812500Y-75025000D02*
X152137500Y-75025000D01*
X152812500Y-75025000D02*
X152812500Y-74350000D01*
X142462500Y-75025000D02*
X142462500Y-74350000D01*
X152812500Y-64675000D02*
X152812500Y-65350000D01*
X142462500Y-64675000D02*
X142462500Y-65350000D01*
X152812500Y-64675000D02*
X152137500Y-64675000D01*
X143037500Y-64675000D02*
X143037500Y-63400000D01*
D11*
%TO.C,C2*%
X208223752Y-69791250D02*
X207701248Y-69791250D01*
X208223752Y-68321250D02*
X207701248Y-68321250D01*
%TO.C,C6*%
X137377500Y-75667502D02*
X137377500Y-75144998D01*
X138847500Y-75667502D02*
X138847500Y-75144998D01*
%TO.C,C1*%
X87051248Y-65940000D02*
X87573752Y-65940000D01*
X87051248Y-67410000D02*
X87573752Y-67410000D01*
%TO.C,R3*%
X169295814Y-42803750D02*
X168841686Y-42803750D01*
X169295814Y-41333750D02*
X168841686Y-41333750D01*
%TO.C,R2*%
X77354186Y-69115000D02*
X77808314Y-69115000D01*
X77354186Y-70585000D02*
X77808314Y-70585000D01*
%TO.C,R10*%
X142308314Y-78522500D02*
X141854186Y-78522500D01*
X142308314Y-77052500D02*
X141854186Y-77052500D01*
%TO.C,Fe1*%
X127116250Y-26285436D02*
X127116250Y-27489564D01*
X125296250Y-26285436D02*
X125296250Y-27489564D01*
%TO.C,C4*%
X151894998Y-78522500D02*
X152417502Y-78522500D01*
X151894998Y-77052500D02*
X152417502Y-77052500D01*
D10*
%TO.C,U1*%
X147193750Y-23156250D02*
X147193750Y-26056250D01*
X147193750Y-23156250D02*
X148493750Y-23156250D01*
X148493750Y-23156250D02*
X148493750Y-26056250D01*
X148493750Y-26056250D02*
X147193750Y-26056250D01*
D11*
%TO.C,C9*%
X150830002Y-61060000D02*
X150307498Y-61060000D01*
X150830002Y-59590000D02*
X150307498Y-59590000D01*
%TO.C,C3*%
X164567502Y-69908750D02*
X164044998Y-69908750D01*
X164567502Y-71378750D02*
X164044998Y-71378750D01*
%TO.C,C7*%
X164811252Y-66733750D02*
X164288748Y-66733750D01*
X164811252Y-68203750D02*
X164288748Y-68203750D01*
%TO.C,Y1*%
X162215625Y-71684375D02*
X157715625Y-71684375D01*
X157715625Y-71684375D02*
X157715625Y-66284375D01*
%TO.C,C8*%
X136019998Y-65028750D02*
X136542502Y-65028750D01*
X136019998Y-63558750D02*
X136542502Y-63558750D01*
%TO.C,R7*%
X141720814Y-20696250D02*
X141266686Y-20696250D01*
X141720814Y-22166250D02*
X141266686Y-22166250D01*
%TO.C,R1*%
X77354186Y-75122500D02*
X77808314Y-75122500D01*
X77354186Y-73652500D02*
X77808314Y-73652500D01*
%TO.C,R4*%
X217508314Y-74328750D02*
X217054186Y-74328750D01*
X217508314Y-72858750D02*
X217054186Y-72858750D01*
%TO.C,R6*%
X153760436Y-20696250D02*
X154214564Y-20696250D01*
X153760436Y-22166250D02*
X154214564Y-22166250D01*
%TO.C,R8*%
X147578750Y-56922936D02*
X147578750Y-57377064D01*
X146108750Y-56922936D02*
X146108750Y-57377064D01*
%TO.C,R5*%
X217508314Y-69908750D02*
X217054186Y-69908750D01*
X217508314Y-71378750D02*
X217054186Y-71378750D01*
%TD*%
M02*
