M48
; DRILL file {KiCad (6.0.5)} date Tue Jun  7 17:53:50 2022
; FORMAT={-:-/ absolute / inch / decimal}
; #@! TF.CreationDate,2022-06-07T17:53:50-07:00
; #@! TF.GenerationSoftware,Kicad,Pcbnew,(6.0.5)
; #@! TF.FileFunction,NonPlated,1,2,NPTH
FMAT,2
INCH
; #@! TA.AperFunction,NonPlated,NPTH,ComponentDrill
T1C0.0256
; #@! TA.AperFunction,NonPlated,NPTH,ComponentDrill
T2C0.0689
; #@! TA.AperFunction,NonPlated,NPTH,ComponentDrill
T3C0.1181
; #@! TA.AperFunction,NonPlated,NPTH,ComponentDrill
T4C0.1200
; #@! TA.AperFunction,NonPlated,NPTH,ComponentDrill
T5C0.1570
%
G90
G05
T1
X5.6987Y-0.621
X5.9263Y-0.621
T2
X3.5562Y-4.1562
X3.9562Y-4.1562
X4.2375Y-5.9375
X4.6375Y-5.9375
X4.925Y-4.1562
X5.325Y-4.1562
X5.6125Y-1.5625
X6.0125Y-1.5625
X6.2938Y-4.1562
X6.6937Y-4.1562
X6.9875Y-5.9375
X7.3875Y-5.9375
X7.675Y-4.1562
X8.075Y-4.1562
T3
X3.6062Y-4.0562
X3.8562Y-3.9562
X4.2875Y-5.8375
X4.5375Y-5.7375
X4.975Y-4.0562
X5.225Y-3.9562
X5.6625Y-1.4625
X5.9125Y-1.3625
X6.3438Y-4.0562
X6.5938Y-3.9562
X7.0375Y-5.8375
X7.2875Y-5.7375
X7.725Y-4.0562
X7.975Y-3.9562
T4
X3.9675Y-5.6625
X4.9075Y-5.6625
X6.7175Y-5.6625
X7.6575Y-5.6625
T5
X3.7563Y-4.1562
X3.9675Y-6.2625
X4.4375Y-5.9375
X4.9075Y-6.2625
X5.125Y-4.1562
X5.8125Y-1.5625
X6.4937Y-4.1562
X6.7175Y-6.2625
X7.1875Y-5.9375
X7.6575Y-6.2625
X7.875Y-4.1562
T0
M30
