M48
; DRILL file {KiCad (6.0.5)} date Tue Jun  7 22:35:03 2022
; FORMAT={-:-/ absolute / inch / decimal}
; #@! TF.CreationDate,2022-06-07T22:35:03-07:00
; #@! TF.GenerationSoftware,Kicad,Pcbnew,(6.0.5)
; #@! TF.FileFunction,Plated,1,2,PTH
FMAT,2
INCH
; #@! TA.AperFunction,Plated,PTH,ViaDrill
T1C0.0157
; #@! TA.AperFunction,Plated,PTH,ComponentDrill
T2C0.0236
; #@! TA.AperFunction,Plated,PTH,ComponentDrill
T3C0.0394
; #@! TA.AperFunction,Plated,PTH,ComponentDrill
T4C0.1024
%
G90
G05
T1
X2.9062Y-2.8438
X2.9062Y-3.125
X3.9688Y-3.5938
X4.4062Y-4.5
X4.5625Y-3.0
X4.5938Y-3.3125
X4.5938Y-3.4688
X4.625Y-2.2188
X4.8438Y-3.5312
X4.8438Y-3.875
X4.875Y-3.125
X5.1562Y-2.9062
X5.2188Y-3.5
X5.25Y-2.5312
X5.375Y-0.8438
X5.375Y-2.7812
X5.375Y-3.3125
X5.4062Y-3.0625
X5.4062Y-3.625
X5.5312Y-3.5
X5.5625Y-2.5
X5.6875Y-0.7812
X5.7188Y-0.5312
X5.7188Y-3.125
X5.75Y-5.75
X5.8125Y-0.5
X5.8438Y-2.375
X5.8438Y-4.0312
X5.8931Y-2.445
X5.9062Y-0.5312
X5.9062Y-3.25
X5.9375Y-0.7812
X6.0625Y-2.0312
X6.125Y-2.3438
X6.1562Y-2.2812
X6.1562Y-3.0312
X6.1788Y-2.3432
X6.1875Y-1.9688
X6.1875Y-2.4375
X6.2188Y-2.3438
X6.25Y-2.375
X6.375Y-3.375
X6.4688Y-1.5625
X6.5Y-1.6562
X6.5Y-3.2188
X6.5Y-3.2812
X6.5579Y-3.3392
X6.625Y-3.625
X6.7812Y-2.25
X6.7812Y-3.375
X6.875Y-3.3125
X6.875Y-3.5625
X6.9688Y-1.9688
X7.0312Y-1.375
X7.0625Y-2.9688
X7.125Y-1.6562
X7.125Y-3.0938
X7.2188Y-4.0625
X7.3125Y-1.875
X8.2812Y-3.1875
X8.6875Y-1.75
X8.6875Y-3.0938
X8.75Y-3.6562
X8.7812Y-3.1417
X8.8438Y-3.0312
T3
X2.4171Y-2.5994
X2.4171Y-3.1703
X2.5155Y-3.1703
X2.6139Y-2.5994
X2.6139Y-3.1703
X6.9188Y-1.5562
X6.9188Y-1.6562
X6.9188Y-1.7562
X7.0187Y-1.5562
X7.0187Y-1.6562
X7.0187Y-1.7562
X9.0829Y-2.5994
X9.0829Y-3.1703
X9.1813Y-3.1703
X9.2798Y-2.5994
X9.2798Y-3.1703
T4
X2.295Y-2.875
X2.736Y-2.875
X8.9609Y-2.875
X9.4018Y-2.875
T2
G00X5.6424Y-0.4655
M15
G01X5.6424Y-0.4891
M16
G05
G00X5.6424Y-0.6202
M15
G01X5.6424Y-0.6635
M16
G05
G00X5.9826Y-0.4655
M15
G01X5.9826Y-0.4891
M16
G05
G00X5.9826Y-0.6202
M15
G01X5.9826Y-0.6635
M16
G05
T0
M30
