%TF.GenerationSoftware,KiCad,Pcbnew,(6.0.5)*%
%TF.CreationDate,2022-06-07T17:53:48-07:00*%
%TF.ProjectId,sdvx-pcb,73647678-2d70-4636-922e-6b696361645f,rev?*%
%TF.SameCoordinates,Original*%
%TF.FileFunction,Soldermask,Bot*%
%TF.FilePolarity,Negative*%
%FSLAX46Y46*%
G04 Gerber Fmt 4.6, Leading zero omitted, Abs format (unit mm)*
G04 Created by KiCad (PCBNEW (6.0.5)) date 2022-06-07 17:53:48*
%MOMM*%
%LPD*%
G01*
G04 APERTURE LIST*
G04 Aperture macros list*
%AMRoundRect*
0 Rectangle with rounded corners*
0 $1 Rounding radius*
0 $2 $3 $4 $5 $6 $7 $8 $9 X,Y pos of 4 corners*
0 Add a 4 corners polygon primitive as box body*
4,1,4,$2,$3,$4,$5,$6,$7,$8,$9,$2,$3,0*
0 Add four circle primitives for the rounded corners*
1,1,$1+$1,$2,$3*
1,1,$1+$1,$4,$5*
1,1,$1+$1,$6,$7*
1,1,$1+$1,$8,$9*
0 Add four rect primitives between the rounded corners*
20,1,$1+$1,$2,$3,$4,$5,0*
20,1,$1+$1,$4,$5,$6,$7,0*
20,1,$1+$1,$6,$7,$8,$9,0*
20,1,$1+$1,$8,$9,$2,$3,0*%
G04 Aperture macros list end*
%ADD10C,1.500000*%
%ADD11R,2.000000X2.000000*%
%ADD12C,2.000000*%
%ADD13C,3.200000*%
%ADD14C,1.750000*%
%ADD15C,3.000000*%
%ADD16C,3.987800*%
%ADD17R,2.550000X2.500000*%
%ADD18C,3.048000*%
%ADD19RoundRect,0.250000X-0.475000X0.337500X-0.475000X-0.337500X0.475000X-0.337500X0.475000X0.337500X0*%
%ADD20RoundRect,0.250000X-0.450000X0.350000X-0.450000X-0.350000X0.450000X-0.350000X0.450000X0.350000X0*%
%ADD21C,1.700000*%
%ADD22R,1.700000X1.700000*%
%ADD23R,0.550000X1.500000*%
%ADD24R,1.500000X0.550000*%
%ADD25RoundRect,0.250000X0.337500X0.475000X-0.337500X0.475000X-0.337500X-0.475000X0.337500X-0.475000X0*%
%ADD26C,0.650000*%
%ADD27R,0.600000X2.450000*%
%ADD28R,0.300000X2.450000*%
%ADD29RoundRect,0.250000X0.475000X-0.337500X0.475000X0.337500X-0.475000X0.337500X-0.475000X-0.337500X0*%
%ADD30RoundRect,0.250000X-0.337500X-0.475000X0.337500X-0.475000X0.337500X0.475000X-0.337500X0.475000X0*%
%ADD31RoundRect,0.250000X0.350000X0.450000X-0.350000X0.450000X-0.350000X-0.450000X0.350000X-0.450000X0*%
%ADD32RoundRect,0.250000X-0.350000X-0.450000X0.350000X-0.450000X0.350000X0.450000X-0.350000X0.450000X0*%
%ADD33RoundRect,0.250001X-0.624999X0.462499X-0.624999X-0.462499X0.624999X-0.462499X0.624999X0.462499X0*%
%ADD34R,0.700000X1.000000*%
%ADD35R,0.700000X0.600000*%
%ADD36R,1.800000X2.100000*%
G04 APERTURE END LIST*
D10*
%TO.C,VOL-R1*%
X230706250Y-66025000D03*
X235706250Y-66025000D03*
D11*
X230706250Y-80525000D03*
D12*
X235706250Y-80525000D03*
X233206250Y-80525000D03*
D13*
X227606250Y-73025000D03*
X238806250Y-73025000D03*
%TD*%
D10*
%TO.C,VOL-L1*%
X61393750Y-66025000D03*
X66393750Y-66025000D03*
D11*
X61393750Y-80525000D03*
D12*
X66393750Y-80525000D03*
X63893750Y-80525000D03*
D13*
X58293750Y-73025000D03*
X69493750Y-73025000D03*
%TD*%
D14*
%TO.C,BT-C1*%
X170021250Y-105568750D03*
D15*
X167481250Y-100488750D03*
D16*
X164941250Y-105568750D03*
D14*
X159861250Y-105568750D03*
D15*
X161131250Y-103028750D03*
D17*
X157856250Y-103028750D03*
X170783250Y-100488750D03*
%TD*%
D15*
%TO.C,FX-R1*%
X178752500Y-148272500D03*
D16*
X170624500Y-159067500D03*
D15*
X185102500Y-145732500D03*
D16*
X194500500Y-159067500D03*
D14*
X177482500Y-150812500D03*
D18*
X194500500Y-143827500D03*
D16*
X182562500Y-150812500D03*
D18*
X170624500Y-143827500D03*
D14*
X187642500Y-150812500D03*
D17*
X175477500Y-148272500D03*
X188404500Y-145732500D03*
%TD*%
D14*
%TO.C,START1*%
X152717500Y-39687500D03*
X142557500Y-39687500D03*
D15*
X143827500Y-37147500D03*
X150177500Y-34607500D03*
D16*
X147637500Y-39687500D03*
D17*
X140552500Y-37147500D03*
X153479500Y-34607500D03*
%TD*%
D14*
%TO.C,BT-B1*%
X135255000Y-105568750D03*
D15*
X126365000Y-103028750D03*
D16*
X130175000Y-105568750D03*
D15*
X132715000Y-100488750D03*
D14*
X125095000Y-105568750D03*
D17*
X123090000Y-103028750D03*
X136017000Y-100488750D03*
%TD*%
D14*
%TO.C,BT-D1*%
X205105000Y-105568750D03*
D15*
X202565000Y-100488750D03*
X196215000Y-103028750D03*
D14*
X194945000Y-105568750D03*
D16*
X200025000Y-105568750D03*
D17*
X192940000Y-103028750D03*
X205867000Y-100488750D03*
%TD*%
D15*
%TO.C,BT-A1*%
X97948750Y-100488750D03*
D14*
X100488750Y-105568750D03*
D16*
X95408750Y-105568750D03*
D15*
X91598750Y-103028750D03*
D14*
X90328750Y-105568750D03*
D17*
X88323750Y-103028750D03*
X101250750Y-100488750D03*
%TD*%
D15*
%TO.C,FX-L1*%
X108902500Y-148272500D03*
D18*
X124650500Y-143827500D03*
D16*
X124650500Y-159067500D03*
D18*
X100774500Y-143827500D03*
D16*
X112712500Y-150812500D03*
X100774500Y-159067500D03*
D14*
X107632500Y-150812500D03*
X117792500Y-150812500D03*
D15*
X115252500Y-145732500D03*
D17*
X105627500Y-148272500D03*
X118554500Y-145732500D03*
%TD*%
D19*
%TO.C,C5*%
X158750000Y-62706250D03*
X158750000Y-64781250D03*
%TD*%
D20*
%TO.C,R9*%
X144462500Y-56150000D03*
X144462500Y-58150000D03*
%TD*%
D21*
%TO.C,J1*%
X178276250Y-39528750D03*
X175736250Y-39528750D03*
X178276250Y-42068750D03*
X175736250Y-42068750D03*
X178276250Y-44608750D03*
D22*
X175736250Y-44608750D03*
%TD*%
D23*
%TO.C,U2*%
X143637500Y-64150000D03*
X144437500Y-64150000D03*
X145237500Y-64150000D03*
X146037500Y-64150000D03*
X146837500Y-64150000D03*
X147637500Y-64150000D03*
X148437500Y-64150000D03*
X149237500Y-64150000D03*
X150037500Y-64150000D03*
X150837500Y-64150000D03*
X151637500Y-64150000D03*
D24*
X153337500Y-65850000D03*
X153337500Y-66650000D03*
X153337500Y-67450000D03*
X153337500Y-68250000D03*
X153337500Y-69050000D03*
X153337500Y-69850000D03*
X153337500Y-70650000D03*
X153337500Y-71450000D03*
X153337500Y-72250000D03*
X153337500Y-73050000D03*
X153337500Y-73850000D03*
D23*
X151637500Y-75550000D03*
X150837500Y-75550000D03*
X150037500Y-75550000D03*
X149237500Y-75550000D03*
X148437500Y-75550000D03*
X147637500Y-75550000D03*
X146837500Y-75550000D03*
X146037500Y-75550000D03*
X145237500Y-75550000D03*
X144437500Y-75550000D03*
X143637500Y-75550000D03*
D24*
X141937500Y-73850000D03*
X141937500Y-73050000D03*
X141937500Y-72250000D03*
X141937500Y-71450000D03*
X141937500Y-70650000D03*
X141937500Y-69850000D03*
X141937500Y-69050000D03*
X141937500Y-68250000D03*
X141937500Y-67450000D03*
X141937500Y-66650000D03*
X141937500Y-65850000D03*
%TD*%
D25*
%TO.C,C2*%
X209000000Y-69056250D03*
X206925000Y-69056250D03*
%TD*%
D26*
%TO.C,USB1*%
X150527500Y-15772500D03*
X144747500Y-15772500D03*
D27*
X144412500Y-17717500D03*
X145187500Y-17717500D03*
D28*
X145887500Y-17717500D03*
X146387500Y-17717500D03*
X146887500Y-17717500D03*
X147387500Y-17717500D03*
X147887500Y-17717500D03*
X148387500Y-17717500D03*
X148887500Y-17717500D03*
X149387500Y-17717500D03*
D27*
X150087500Y-17717500D03*
X150862500Y-17717500D03*
%TD*%
D29*
%TO.C,C6*%
X138112500Y-76443750D03*
X138112500Y-74368750D03*
%TD*%
D30*
%TO.C,C1*%
X86275000Y-66675000D03*
X88350000Y-66675000D03*
%TD*%
D31*
%TO.C,R3*%
X170068750Y-42068750D03*
X168068750Y-42068750D03*
%TD*%
D32*
%TO.C,R2*%
X76581250Y-69850000D03*
X78581250Y-69850000D03*
%TD*%
D31*
%TO.C,R10*%
X143081250Y-77787500D03*
X141081250Y-77787500D03*
%TD*%
D33*
%TO.C,Fe1*%
X126206250Y-25400000D03*
X126206250Y-28375000D03*
%TD*%
D30*
%TO.C,C4*%
X151118750Y-77787500D03*
X153193750Y-77787500D03*
%TD*%
D34*
%TO.C,U1*%
X148843750Y-23856250D03*
D35*
X148843750Y-25556250D03*
X146843750Y-25556250D03*
X146843750Y-23656250D03*
%TD*%
D25*
%TO.C,C9*%
X151606250Y-60325000D03*
X149531250Y-60325000D03*
%TD*%
%TO.C,C3*%
X165343750Y-70643750D03*
X163268750Y-70643750D03*
%TD*%
%TO.C,C7*%
X165587500Y-67468750D03*
X163512500Y-67468750D03*
%TD*%
D36*
%TO.C,Y1*%
X158815625Y-70434375D03*
X158815625Y-67534375D03*
X161115625Y-67534375D03*
X161115625Y-70434375D03*
%TD*%
D30*
%TO.C,C8*%
X135243750Y-64293750D03*
X137318750Y-64293750D03*
%TD*%
D31*
%TO.C,R7*%
X142493750Y-21431250D03*
X140493750Y-21431250D03*
%TD*%
D32*
%TO.C,R1*%
X76581250Y-74387500D03*
X78581250Y-74387500D03*
%TD*%
D31*
%TO.C,R4*%
X218281250Y-73593750D03*
X216281250Y-73593750D03*
%TD*%
D32*
%TO.C,R6*%
X152987500Y-21431250D03*
X154987500Y-21431250D03*
%TD*%
D20*
%TO.C,R8*%
X146843750Y-56150000D03*
X146843750Y-58150000D03*
%TD*%
D31*
%TO.C,R5*%
X218281250Y-70643750D03*
X216281250Y-70643750D03*
%TD*%
M02*
